<svg width="25" height="25" viewBox="0 0 25 25" fill="none" xmlns="http://www.w3.org/2000/svg">
<path d="M22.6334 0H2.36954C1.06377 0 0.00189209 1.062 0.00189209 2.36777V22.6324C0.00189209 23.9382 1.06377 25 2.36954 25H22.6334C23.9393 25 24.9996 23.9382 24.9996 22.6324V2.36777C24.9995 1.06194 23.9393 0 22.6334 0ZM22.9722 22.6323C22.9722 22.8177 22.8204 22.971 22.6334 22.971H2.36954C2.18405 22.971 2.03139 22.8175 2.03139 22.6323V2.36771C2.03139 2.1807 2.18399 2.02949 2.36954 2.02949H22.6334C22.8204 2.02949 22.9722 2.18077 22.9722 2.36771V22.6323Z" fill="#030104"/>
<path d="M20.3017 4.61832H4.69835C4.3845 4.61832 4.13013 4.87269 4.13013 5.18654V7.18629C4.13013 7.50014 4.3845 7.75451 4.69835 7.75451H20.3017C20.6155 7.75451 20.8699 7.50014 20.8699 7.18629V5.18654C20.8699 4.87263 20.6155 4.61832 20.3017 4.61832Z" fill="#030104"/>
<path d="M20.3017 10.9319H4.69835C4.3845 10.9319 4.13013 11.1863 4.13013 11.5001V13.4998C4.13013 13.8137 4.3845 14.068 4.69835 14.068H20.3017C20.6155 14.068 20.8699 13.8137 20.8699 13.4998V11.5001C20.8699 11.1862 20.6155 10.9319 20.3017 10.9319Z" fill="#030104"/>
<path d="M20.3017 17.2454H4.69835C4.3845 17.2454 4.13013 17.4997 4.13013 17.8136V19.8133C4.13013 20.1272 4.3845 20.3816 4.69835 20.3816H20.3017C20.6155 20.3816 20.8699 20.1272 20.8699 19.8133V17.8136C20.8699 17.4997 20.6155 17.2454 20.3017 17.2454Z" fill="#030104"/>
</svg>
