<svg width="25" height="25" viewBox="0 0 25 25" fill="none" xmlns="http://www.w3.org/2000/svg">
<path d="M22.6334 0H2.3696C1.06383 0 0.00195312 1.062 0.00195312 2.36777V22.6324C0.00195312 23.9382 1.06383 25 2.3696 25H22.6334C23.9393 25 24.9996 23.9382 24.9996 22.6324V2.36777C24.9996 1.06194 23.9393 0 22.6334 0ZM22.9723 22.6323C22.9723 22.8177 22.8204 22.971 22.6334 22.971H2.3696C2.18411 22.971 2.03145 22.8175 2.03145 22.6323V2.36771C2.03145 2.1807 2.18405 2.02949 2.3696 2.02949H22.6334C22.8204 2.02949 22.9723 2.18077 22.9723 2.36771V22.6323Z" fill="#AE5EFF"/>
<path d="M20.3018 4.61829H4.69847C4.38462 4.61829 4.13025 4.87266 4.13025 5.18651V7.18626C4.13025 7.50011 4.38462 7.75448 4.69847 7.75448H20.3018C20.6157 7.75448 20.87 7.50011 20.87 7.18626V5.18651C20.87 4.8726 20.6156 4.61829 20.3018 4.61829Z" fill="#AE5EFF"/>
<path d="M20.3018 10.9319H4.69847C4.38462 10.9319 4.13025 11.1863 4.13025 11.5001V13.4998C4.13025 13.8137 4.38462 14.068 4.69847 14.068H20.3018C20.6157 14.068 20.87 13.8137 20.87 13.4998V11.5001C20.87 11.1862 20.6156 10.9319 20.3018 10.9319Z" fill="#AE5EFF"/>
<path d="M20.3018 17.2454H4.69847C4.38462 17.2454 4.13025 17.4997 4.13025 17.8136V19.8133C4.13025 20.1272 4.38462 20.3816 4.69847 20.3816H20.3018C20.6157 20.3816 20.87 20.1272 20.87 19.8133V17.8136C20.87 17.4997 20.6156 17.2454 20.3018 17.2454Z" fill="#AE5EFF"/>
</svg>
