<svg width="18" height="15" viewBox="0 0 18 15" fill="none" xmlns="http://www.w3.org/2000/svg">
<g clip-path="url(#clip0)">
<path d="M17.5138 6.9172L11.1642 1.50005C10.983 1.34541 10.7414 1.26054 10.4838 1.26054C10.2259 1.26054 9.98449 1.34554 9.80323 1.50005L9.22673 1.99199C9.04562 2.14638 8.94585 2.3526 8.94585 2.57248C8.94585 2.79223 9.04562 3.0054 9.22673 3.15979L12.931 6.32696H1.16233C0.631722 6.32696 0.212463 6.68134 0.212463 7.13415V7.82963C0.212463 8.28243 0.631722 8.67255 1.16233 8.67255H12.973L9.22688 11.8574C9.04576 12.012 8.94599 12.2126 8.94599 12.4325C8.94599 12.6521 9.04576 12.8557 9.22688 13.0102L9.80337 13.5006C9.98463 13.6552 10.2261 13.7395 10.4839 13.7395C10.7415 13.7395 10.9831 13.6541 11.1644 13.4995L17.514 8.08243C17.6957 7.92731 17.7956 7.72024 17.7949 7.50012C17.7954 7.27927 17.6957 7.07207 17.5138 6.9172Z" fill="white"/>
</g>
<defs>
<clipPath id="clip0">
<rect width="17.5824" height="15" fill="white" transform="translate(0.212463)"/>
</clipPath>
</defs>
</svg>
