<svg width="30" height="30" viewBox="0 0 30 30" fill="none" xmlns="http://www.w3.org/2000/svg">
<g clip-path="url(#clip0)">
<path d="M29.0937 26.5245C30.746 23.6223 30.0738 19.9525 27.5 17.8245V13.7495H28.125C28.4702 13.7495 28.75 13.4696 28.75 13.1245V11.2495H29.375C29.7202 11.2487 29.9994 10.9682 29.9985 10.623C29.9981 10.4193 29.8983 10.2285 29.7312 10.112L15.3562 0.111977C15.142 -0.0366748 14.858 -0.0366748 14.6438 0.111977L0.26877 10.112C-0.0142969 10.3096 -0.0835547 10.6992 0.113965 10.9822C0.230566 11.1493 0.421289 11.249 0.62502 11.2495H1.25004V13.1245C1.25004 13.4696 1.52988 13.7495 1.87506 13.7495H2.50008V23.7495H1.875C1.52982 23.7495 1.24998 24.0293 1.24998 24.3745V26.362C0.502676 26.6262 0.00222656 27.3318 0 28.1245V29.3744C0 29.7196 0.279844 29.9995 0.62502 29.9995H29.375C29.7202 29.9995 30.0001 29.7196 30.0001 29.3744V28.1245C29.9981 27.4694 29.6546 26.8629 29.0937 26.5245ZM27.5 12.4995H22.5V11.2495H27.5V12.4995ZM26.25 13.7495V17.0057C25.471 16.6056 24.6222 16.3594 23.75 16.2807V13.7495H26.25ZM15 1.38698L27.3813 9.99949H2.61873L15 1.38698ZM8.12502 23.7495H7.5V13.7495H8.12502C8.4702 13.7495 8.75004 13.4696 8.75004 13.1245V11.2495H11.25V13.1245C11.25 13.4696 11.5298 13.7495 11.875 13.7495H12.5V23.7495H11.875C11.5298 23.7495 11.25 24.0293 11.25 24.3745V26.2495H8.74998V24.3745C8.74998 24.0293 8.4702 23.7495 8.12502 23.7495ZM12.5 24.9995H16.5188C16.6418 25.4314 16.8071 25.8501 17.0125 26.2495H12.5V24.9995H12.5ZM13.75 23.7495V13.7495H16.25V23.7495H13.75ZM16.875 12.4995H12.5V11.2495H17.5V12.4995H16.875ZM17.5 13.7495H18.125C18.4702 13.7495 18.7501 13.4696 18.7501 13.1245V11.2495H21.2501V13.1245C21.2501 13.4696 21.5299 13.7495 21.8751 13.7495H22.5V16.2807C20.4882 16.4658 18.6596 17.5264 17.5 19.1807V13.7495ZM2.50002 11.2495H7.5V12.4995H2.50002V11.2495ZM6.25002 13.7495V23.7495H3.75V13.7495H6.25002ZM2.50002 24.9995H7.5V26.2495H2.50002V24.9995ZM1.24998 28.7495V28.1245C1.24998 27.7793 1.52982 27.4994 1.875 27.4994H17.825C18.2194 27.9746 18.6755 28.3951 19.1812 28.7494H1.24998V28.7495ZM28.75 28.7495H27.0625C27.5494 28.4095 27.9905 28.0083 28.375 27.5558C28.6014 27.6545 28.7484 27.8775 28.75 28.1245V28.7495ZM23.125 28.7495C20.0184 28.7495 17.5 26.2311 17.5 23.1245C17.5 20.0179 20.0184 17.4995 23.125 17.4995C26.2316 17.4995 28.75 20.0179 28.75 23.1245C28.75 26.2311 26.2316 28.7495 23.125 28.7495Z" fill="black"/>
<path d="M22.275 7.61826L15.4 2.61829L14.6313 3.63078L19.95 7.49955H8.74997V8.74953H21.875C22.1567 8.7633 22.4129 8.58664 22.5 8.31828C22.5847 8.06082 22.4938 7.7781 22.275 7.61826Z" fill="black"/>
<path d="M24.375 19.9996H23.75V18.7496H22.5V19.9996H21.875C21.1846 19.9996 20.625 20.5592 20.625 21.2495V22.4995C20.625 23.1899 21.1846 23.7495 21.875 23.7495H24.375V24.9995H21.875V24.3745H20.625V24.9995C20.625 25.6898 21.1846 26.2495 21.875 26.2495H22.5V27.4994H23.75V26.2495H24.375C25.0654 26.2495 25.625 25.6898 25.625 24.9995V23.7495C25.625 23.0591 25.0654 22.4995 24.375 22.4995H21.875V21.2495H24.375V21.8746H25.625V21.2495C25.625 20.5592 25.0654 19.9996 24.375 19.9996Z" fill="black"/>
</g>
<defs>
<clipPath id="clip0">
<rect width="30" height="30" fill="white"/>
</clipPath>
</defs>
</svg>
