<svg width="25" height="25" viewBox="0 0 25 25" fill="none" xmlns="http://www.w3.org/2000/svg">
<g clip-path="url(#clip0)">
<path d="M22.2698 17.6177C20.6948 16.2865 19.7916 14.3406 19.7916 12.2792V9.375C19.7916 5.70938 17.0687 2.675 13.5416 2.16667V1.04167C13.5416 0.465625 13.075 0 12.5 0C11.925 0 11.4583 0.465625 11.4583 1.04167V2.16667C7.93019 2.675 5.20831 5.70938 5.20831 9.375V12.2792C5.20831 14.3406 4.30519 16.2865 2.72081 17.626C2.3156 17.9729 2.08331 18.4771 2.08331 19.0104C2.08331 20.0156 2.90102 20.8333 3.90623 20.8333H21.0937C22.0989 20.8333 22.9166 20.0156 22.9166 19.0104C22.9166 18.4771 22.6844 17.9729 22.2698 17.6177Z" fill="#AE5EFF"/>
<path d="M12.5 25C14.3865 25 15.9646 23.6552 16.3271 21.875H8.67291C9.03541 23.6552 10.6135 25 12.5 25Z" fill="#AE5EFF"/>
</g>
<defs>
<clipPath id="clip0">
<rect width="25" height="25" fill="white"/>
</clipPath>
</defs>
</svg>
