<svg width="30" height="30" viewBox="0 0 30 30" fill="none" xmlns="http://www.w3.org/2000/svg">
<g clip-path="url(#clip0)">
<path d="M15.0115 -0.000116641C6.72671 -0.0070893 0.00688653 6.70348 -8.61239e-05 14.9883C-0.00705878 23.2731 6.70351 29.9929 14.9883 29.9999C23.272 29.9929 29.9871 23.2836 29.9999 14.9999C29.9999 6.71971 23.2917 0.00685602 15.0115 -0.000116641ZM14.9883 27.5038C8.08275 27.5038 2.48446 21.9055 2.48446 14.9999C2.48446 8.09432 8.08275 2.49604 14.9883 2.49604C21.8915 2.50301 27.4852 8.09666 27.4922 14.9999C27.4922 21.9055 21.8939 27.5038 14.9883 27.5038Z" fill="black"/>
<path d="M19.0403 14.2686C20.0434 13.7031 20.5856 12.5712 20.3987 11.4357C20.1665 9.68268 18.0767 9.02086 16.4281 8.88158V6.24615H14.8027V8.85838H13.7114V6.24615H12.086V8.85838H8.81195V10.5418H10.031C10.5767 10.5418 10.8437 10.7044 10.8437 11.1455V18.3785C10.8437 18.9822 10.5418 19.168 10.2167 19.168H8.97449V20.8863H12.1324V23.5566H13.7694V20.8863H14.8607V23.5566H16.4513V20.8863H16.7996C20.1432 20.8863 21.2578 19.2493 21.2578 17.0202C21.2311 15.7059 20.3197 14.5751 19.0403 14.2686ZM13.7113 10.6463H14.8723C15.685 10.6463 17.2872 10.7856 17.2872 12.1092C17.3429 12.973 16.7171 13.7299 15.8591 13.839H13.7113V10.6463ZM15.5109 19.0054V18.9938H13.7113V15.5108H15.8011C16.2888 15.5108 18.1231 15.6734 18.1231 16.9737C18.1231 18.274 17.2524 19.0054 15.5109 19.0054Z" fill="black"/>
</g>
<defs>
<clipPath id="clip0">
<rect width="30" height="30" fill="white"/>
</clipPath>
</defs>
</svg>
