<svg width="40" height="40" viewBox="0 0 40 40" fill="none" xmlns="http://www.w3.org/2000/svg">
<rect width="40" height="40" rx="5" fill="#FFA800"/>
<path d="M33.29 30.1744C33.0302 29.7161 32.6029 29.3852 32.0968 29.2555V22.3506C32.929 22.1344 33.5484 21.3834 33.5484 20.4839V18.9539L30.5102 9.83871H26.1147C25.4566 7.06903 22.9681 5 20 5C17.0319 5 14.5434 7.06903 13.8853 9.83871H9.48984L6.45161 18.9539V20.4839C6.45161 21.3834 7.07097 22.1344 7.90323 22.3506V29.2555C7.3971 29.3847 6.96984 29.7161 6.71 30.1744C5.74855 30.2866 5 31.1058 5 32.0968V35H35V32.0968C35 31.1058 34.2515 30.2866 33.29 30.1744ZM32.5806 20.4839C32.5806 21.0176 32.1466 21.4516 31.6129 21.4516C31.0792 21.4516 30.6452 21.0176 30.6452 20.4839V19.5161H32.5806V20.4839ZM29.8124 10.8065L32.3934 18.5484H30.5494L28.8287 10.8065H29.8124ZM27.8377 10.8065L29.5584 18.5484H27.6679L26.3774 10.8065H27.8377ZM29.6774 19.5161V20.4839C29.6774 21.0176 29.2434 21.4516 28.7097 21.4516C28.176 21.4516 27.7419 21.0176 27.7419 20.4839V19.5161H29.6774ZM26.6871 18.5484H24.7879L24.4724 15.7071C25.0705 15.1018 25.5423 14.374 25.8573 13.5679L26.6871 18.5484ZM26.7742 19.5161V20.4839C26.7742 21.0176 26.3402 21.4516 25.8065 21.4516C25.2727 21.4516 24.8387 21.0176 24.8387 20.4839V19.5161H26.7742ZM20 5.96774C22.9347 5.96774 25.3226 8.35564 25.3226 11.2903C25.3226 13.1542 24.3577 14.7945 22.9032 15.7458V12.6732C23.7355 12.4569 24.3548 11.706 24.3548 10.8065V8.3871H23.3871V10.8065C23.3871 11.1631 23.1911 11.4718 22.9032 11.6397V8.3871H21.9355V11.6397C21.6476 11.4718 21.4516 11.1631 21.4516 10.8065V8.3871H20.4839V10.8065C20.4839 11.706 21.1032 12.4569 21.9355 12.6732V16.2432C21.3345 16.4789 20.6832 16.6129 20 16.6129C19.3168 16.6129 18.6655 16.4789 18.0645 16.2432V12.6732C18.8968 12.4569 19.5161 11.706 19.5161 10.8065C19.5161 9.80919 18.7623 7.90323 17.5806 7.90323C16.399 7.90323 15.6452 9.80919 15.6452 10.8065C15.6452 11.706 16.2645 12.4569 17.0968 12.6732V15.7458C15.6423 14.7945 14.6774 13.1542 14.6774 11.2903C14.6774 8.35564 17.0653 5.96774 20 5.96774ZM21.9355 19.5161H23.871V20.4839C23.871 21.0176 23.4369 21.4516 22.9032 21.4516C22.3695 21.4516 21.9355 21.0176 21.9355 20.4839V19.5161ZM21.9094 18.5484L21.8402 17.3048C22.4687 17.1118 23.0537 16.8219 23.5816 16.4547L23.8144 18.5484H21.9094ZM20.9677 19.5161V20.4839C20.9677 21.0176 20.5337 21.4516 20 21.4516C19.4663 21.4516 19.0323 21.0176 19.0323 20.4839V19.5161H20.9677ZM19.0598 18.5484L19.1174 17.5115C19.4068 17.5521 19.6995 17.5806 20 17.5806C20.3005 17.5806 20.5932 17.5521 20.8826 17.5115L20.9402 18.5484H19.0598ZM16.1856 18.5484L16.4184 16.4547C16.9463 16.8219 17.5313 17.1118 18.1598 17.3048L18.0906 18.5484H16.1856ZM18.0645 19.5161V20.4839C18.0645 21.0176 17.6305 21.4516 17.0968 21.4516C16.5631 21.4516 16.129 21.0176 16.129 20.4839V19.5161H18.0645ZM17.5806 11.7742C17.0469 11.7742 16.6129 11.3402 16.6129 10.8065C16.6129 10.0831 17.2187 8.87097 17.5806 8.87097C17.9426 8.87097 18.5484 10.0831 18.5484 10.8065C18.5484 11.3402 18.1144 11.7742 17.5806 11.7742ZM14.1427 13.5684C14.4573 14.3745 14.9295 15.1018 15.5276 15.7076L15.2121 18.5484H13.3129L14.1427 13.5684ZM15.1613 19.5161V20.4839C15.1613 21.0176 14.7273 21.4516 14.1935 21.4516C13.6598 21.4516 13.2258 21.0176 13.2258 20.4839V19.5161H15.1613ZM13.6226 10.8065L12.3321 18.5484H10.4416L12.1623 10.8065H13.6226ZM12.2581 19.5161V20.4839C12.2581 21.0176 11.824 21.4516 11.2903 21.4516C10.7566 21.4516 10.3226 21.0176 10.3226 20.4839V19.5161H12.2581ZM10.1876 10.8065H11.1713L9.45064 18.5484H7.60661L10.1876 10.8065ZM7.41935 20.4839V19.5161H9.35484V20.4839C9.35484 21.0176 8.92081 21.4516 8.3871 21.4516C7.85339 21.4516 7.41935 21.0176 7.41935 20.4839ZM13.7097 34.0323H5.96774V33.0645H13.7097V34.0323ZM5.96774 32.0968C5.96774 31.5631 6.40177 31.129 6.9171 31.129L7.35935 31.1547L7.47839 30.8131C7.61435 30.4231 7.97968 30.1613 8.3871 30.1613C8.45435 30.1613 8.52645 30.1715 8.61355 30.1918L8.90677 30.2624L9.09935 30.0306C9.4729 29.5806 10.204 29.5806 10.5781 30.0306L10.7706 30.2624L11.0639 30.1918C11.151 30.1715 11.2231 30.1613 11.2903 30.1613C11.6977 30.1613 12.0631 30.4231 12.1985 30.8131L12.3176 31.1547L12.679 31.1373C12.7066 31.1358 12.7332 31.1324 12.7419 31.129C13.2756 31.129 13.7097 31.5631 13.7097 32.0968H5.96774ZM23.3871 34.0323H16.6129V24.3548H23.3871V34.0323ZM25.3226 32.0968V34.0323H24.3548V23.3871H15.6452V34.0323H14.6774V32.0968C14.6774 31.1058 13.9289 30.2866 12.9674 30.1744C12.6011 29.5284 11.9053 29.1273 11.1195 29.2018C10.5103 28.6569 9.57064 28.5848 8.87097 28.9806V22.3516C9.25032 22.2529 9.5871 22.0477 9.83871 21.7623C10.1934 22.1653 10.7131 22.4194 11.2903 22.4194C11.8676 22.4194 12.3873 22.1653 12.7419 21.7627C13.0966 22.1653 13.6163 22.4194 14.1935 22.4194C14.7708 22.4194 15.2905 22.1653 15.6452 21.7627C15.9998 22.1653 16.5195 22.4194 17.0968 22.4194C17.674 22.4194 18.1937 22.1653 18.5484 21.7627C18.9031 22.1653 19.4227 22.4194 20 22.4194C20.5773 22.4194 21.0969 22.1653 21.4516 21.7627C21.8063 22.1653 22.326 22.4194 22.9032 22.4194C23.4805 22.4194 24.0002 22.1653 24.3548 21.7627C24.7095 22.1653 25.2292 22.4194 25.8065 22.4194C26.3837 22.4194 26.9034 22.1653 27.2581 21.7627C27.6127 22.1653 28.1324 22.4194 28.7097 22.4194C29.2869 22.4194 29.8066 22.1653 30.1613 21.7627C30.4129 22.0482 30.7497 22.2539 31.129 22.3521V28.9811C30.4294 28.5848 29.4897 28.6569 28.8805 29.2023C28.0966 29.1268 27.3984 29.5289 27.0326 30.1748C26.0711 30.2866 25.3226 31.1058 25.3226 32.0968ZM34.0323 34.0323H26.2903V33.0645H34.0323V34.0323ZM26.2903 32.0968C26.2903 31.5631 26.7244 31.129 27.2397 31.129L27.6819 31.1547L27.801 30.8131C27.9369 30.4231 28.3023 30.1613 28.7097 30.1613C28.7769 30.1613 28.849 30.1715 28.9361 30.1918L29.2294 30.2624L29.4219 30.0306C29.7955 29.5806 30.5266 29.5806 30.9006 30.0306L31.0932 30.2624L31.3865 30.1918C31.4735 30.1715 31.5456 30.1613 31.6129 30.1613C32.0203 30.1613 32.3856 30.4231 32.5211 30.8131L32.6402 31.1547L33.0016 31.1373C33.0292 31.1358 33.0558 31.1324 33.0645 31.129C33.5982 31.129 34.0323 31.5631 34.0323 32.0968H26.2903Z" fill="white"/>
<path d="M18.5484 28.7097H17.5807V29.6774H18.5484V28.7097Z" fill="white"/>
<path d="M10.3226 23.871V27.7419H14.1935V23.871H10.3226ZM13.2258 26.7742H11.2903V24.8387H13.2258V26.7742Z" fill="white"/>
<path d="M25.8065 23.871V27.7419H29.6774V23.871H25.8065ZM28.7097 26.7742H26.7742V24.8387H28.7097V26.7742Z" fill="white"/>
</svg>
