<svg width="40" height="40" viewBox="0 0 40 40" fill="none" xmlns="http://www.w3.org/2000/svg">
<rect width="40" height="40" rx="5" fill="black"/>
<path d="M33.9746 12.1027C34.54 12.1027 35 11.642 35 11.0756V10.4885C35 9.92246 34.54 9.46191 33.9746 9.46191H28.8631V8.44619C28.8631 8.01002 28.5082 7.65518 28.0721 7.65518H23.7029C23.1651 6.06418 21.6856 5 20 5C18.3144 5 16.8349 6.06412 16.2971 7.65518H11.9279C11.4918 7.65518 11.1369 8.01002 11.1369 8.44619V9.46191H6.02539C5.46002 9.46191 5 9.92246 5 10.4885V11.0756C5 11.642 5.46002 12.1027 6.02539 12.1027H6.75781V26.6915C6.75781 26.9343 6.95457 27.131 7.19727 27.131C7.43996 27.131 7.63672 26.9343 7.63672 26.6915V12.1027H11.1369V13.1183C11.1369 13.5545 11.4918 13.9094 11.9279 13.9094H20.7591C21.0018 13.9094 21.1986 13.7127 21.1986 13.4699C21.1986 13.2271 21.0018 13.0304 20.7591 13.0304H12.0158V8.53408H16.3609C16.7064 8.53408 17.0087 8.31441 17.113 7.98746C17.5153 6.72629 18.6755 5.87891 20 5.87891C21.3245 5.87891 22.4847 6.72629 22.887 7.98746C22.9913 8.31441 23.2935 8.53408 23.639 8.53408H27.9841V13.0304H22.8099C22.5672 13.0304 22.3704 13.2271 22.3704 13.4698C22.3704 13.7126 22.5672 13.9093 22.8099 13.9093H28.072C28.5082 13.9093 28.863 13.5545 28.863 13.1183V12.1027H32.3633V32.3596H24.7378V24.5391C25.2153 24.5516 25.6174 24.1712 25.6167 23.6895V22.752C25.6167 22.2836 25.2355 21.9024 24.7671 21.9024H15.2329C14.7645 21.9024 14.3833 22.2836 14.3833 22.752V23.6895C14.3824 24.1647 14.7831 24.558 15.2622 24.5391V32.3596H7.63672V28.7424C7.63672 28.4996 7.43996 28.3029 7.19727 28.3029C6.95457 28.3029 6.75781 28.4996 6.75781 28.7424V32.3596H6.02539C5.46002 32.3596 5 32.8201 5 33.3863V33.9734C5 34.5395 5.46002 35 6.02539 35H33.9746C34.54 35 35 34.5395 35 33.9734V33.3862C35 32.8201 34.54 32.3596 33.9746 32.3596H33.2422V12.1027H33.9746ZM11.1369 11.2238H6.02539C5.94465 11.2238 5.87891 11.1573 5.87891 11.0756V10.4885C5.87891 10.407 5.94465 10.3408 6.02539 10.3408H11.1369V11.2238ZM15.2622 22.7813H24.7378V23.6602H15.2622V22.7813ZM23.8589 24.5391V32.3596H20.4395V24.5391H23.8589ZM19.5605 24.5391V32.3596H16.1411V24.5391H19.5605ZM33.9746 33.2386C34.0554 33.2386 34.1211 33.3048 34.1211 33.3863V33.9734C34.1211 34.0549 34.0554 34.1212 33.9746 34.1212H6.02539C5.94465 34.1212 5.87891 34.0549 5.87891 33.9734V33.3863C5.87891 33.3048 5.94465 33.2386 6.02539 33.2386H33.9746ZM28.8631 11.2238V10.3408H33.9746C34.0554 10.3408 34.1211 10.407 34.1211 10.4885V11.0756C34.1211 11.1574 34.0554 11.2238 33.9746 11.2238H28.8631ZM11.7975 16.9769C11.9837 16.9769 12.1631 17.0316 12.3165 17.1352C12.5176 17.271 12.7909 17.2182 12.9267 17.0171C13.0626 16.8159 13.0096 16.5427 12.8085 16.4069C12.5093 16.2048 12.1596 16.0979 11.7974 16.0979C10.8005 16.0979 9.98949 16.9089 9.98949 17.9058C9.98949 18.9027 10.8005 19.7137 11.7974 19.7137C12.1987 19.7137 12.5594 19.5812 12.8408 19.3306C12.8959 19.2815 12.9482 19.2275 12.9963 19.1703C13.1522 18.9842 13.1278 18.7071 12.9418 18.5512C12.7558 18.3953 12.4786 18.4197 12.3227 18.6056C12.302 18.6304 12.2796 18.6536 12.2561 18.6744C12.1366 18.7809 11.9823 18.8349 11.7973 18.8349C11.2851 18.8349 10.8683 18.4181 10.8683 17.9059C10.8685 17.3936 11.2852 16.9769 11.7975 16.9769ZM19.8668 16.123C19.6241 16.123 19.4274 16.3197 19.4274 16.5624V19.2743C19.4274 19.5171 19.6241 19.7138 19.8668 19.7138H21.0095C21.2521 19.7138 21.4489 19.5171 21.4489 19.2743C21.4489 19.0316 21.2521 18.8349 21.0095 18.8349H20.3063V18.3578H20.9253C21.1679 18.3578 21.3647 18.1611 21.3647 17.9183C21.3647 17.6756 21.1679 17.4789 20.9253 17.4789H20.3063V17.0018H21.0095C21.2521 17.0018 21.4489 16.8051 21.4489 16.5624C21.4489 16.3196 21.2521 16.1229 21.0095 16.1229H19.8668V16.123ZM27.8209 19.4308L27.969 19.0417H29.0135L29.1599 19.4295C29.2456 19.6565 29.4991 19.7711 29.7262 19.6854C29.9533 19.5997 30.0679 19.3462 29.9822 19.1191L28.9638 16.4206C28.8898 16.2254 28.7035 16.0978 28.4953 16.0979H28.4949C28.2878 16.0982 28.101 16.2253 28.0273 16.4195L26.9996 19.1178C26.9132 19.3446 27.027 19.5985 27.2538 19.6849C27.4752 19.7694 27.7338 19.6604 27.8209 19.4308ZM28.4936 17.6642L28.6818 18.1629H28.3037L28.4936 17.6642ZM14.8728 19.2743V16.5374C14.8728 16.2946 14.6761 16.0979 14.4334 16.0979C14.1907 16.0979 13.9939 16.2946 13.9939 16.5374V19.2743C13.9939 19.5171 14.1907 19.7138 14.4334 19.7138C14.6761 19.7138 14.8728 19.5171 14.8728 19.2743ZM13.1621 10.7823C13.1621 11.645 13.8639 12.3468 14.7266 12.3468C15.5892 12.3468 16.2911 11.6449 16.2911 10.7823C16.2911 9.91971 15.5892 9.21775 14.7266 9.21775C13.8639 9.21775 13.1621 9.91965 13.1621 10.7823ZM15.4122 10.7823C15.4122 11.1603 15.1046 11.4679 14.7266 11.4679C14.3485 11.4679 14.041 11.1603 14.041 10.7823C14.041 10.4043 14.3485 10.0967 14.7266 10.0967C15.1046 10.0967 15.4122 10.4042 15.4122 10.7823ZM26.8379 10.7823C26.8379 9.91965 26.1361 9.21781 25.2734 9.21781C24.4108 9.21781 23.7089 9.91971 23.7089 10.7823C23.7089 11.6449 24.4108 12.3468 25.2734 12.3468C26.1361 12.3468 26.8379 11.6449 26.8379 10.7823ZM24.5878 10.7823C24.5878 10.4043 24.8954 10.0967 25.2734 10.0967C25.6515 10.0967 25.959 10.4043 25.959 10.7823C25.959 11.1603 25.6515 11.4679 25.2734 11.4679C24.8954 11.4679 24.5878 11.1603 24.5878 10.7823ZM22.6892 19.6854C22.9277 19.7283 23.1566 19.5699 23.1997 19.331L23.3976 18.2344L23.7287 19.3565C23.7917 19.5686 23.9878 19.7138 24.2087 19.7137H24.2113C24.433 19.7128 24.6293 19.5656 24.6901 19.352L25.0096 18.2314L25.2206 19.3354C25.2661 19.5738 25.4964 19.7308 25.7347 19.6845C25.9731 19.639 26.1294 19.4088 26.0838 19.1704L25.5733 16.4993C25.528 16.2762 25.3376 16.1116 25.1104 16.0988C24.8841 16.0868 24.6755 16.2282 24.6053 16.4446C24.6008 16.4584 24.2067 17.8415 24.2025 17.8567C24.1977 17.8409 23.7888 16.4539 23.784 16.4397C23.7116 16.2239 23.5021 16.0842 23.2753 16.0992C23.0482 16.1145 22.8596 16.2811 22.8157 16.5096L22.3346 19.1748C22.2917 19.4137 22.4504 19.6423 22.6892 19.6854ZM16.0604 16.123C15.8768 16.1803 15.7517 16.3503 15.7517 16.5426V19.2743C15.7517 19.5171 15.9485 19.7138 16.1912 19.7138C16.4339 19.7138 16.6306 19.5171 16.6306 19.2743V17.9523L17.6768 19.4671C17.802 19.6481 18.0125 19.7247 18.213 19.662C18.4168 19.5984 18.5485 19.41 18.5485 19.1779L18.5229 16.5332C18.5205 16.2904 18.3247 16.0953 18.0792 16.0979C17.8365 16.1003 17.6417 16.299 17.644 16.5416L17.6571 17.8919L16.5528 16.2928C16.4435 16.1346 16.244 16.0658 16.0604 16.123ZM18.4507 12.217C18.6788 12.3827 18.9755 12.4041 19.2252 12.273L20 11.8656L20.7748 12.273C21.0237 12.4038 21.3204 12.3833 21.5493 12.217C21.7775 12.0512 21.8896 11.7756 21.8419 11.4978L21.6939 10.6349L22.3207 10.0239C22.5226 9.82713 22.594 9.53826 22.5069 9.27008C22.4198 9.00189 22.1923 8.81 21.9132 8.76945L21.047 8.64359L20.6595 7.85861C20.5347 7.60578 20.2821 7.44869 20.0001 7.44869C19.718 7.44869 19.4654 7.60578 19.3406 7.85861L18.9532 8.64359L18.0868 8.76945C17.8077 8.81 17.5803 9.00189 17.4931 9.27008C17.4061 9.53826 17.4774 9.82713 17.6793 10.0238L18.3061 10.6349L18.1582 11.4977C18.1104 11.7756 18.2225 12.0512 18.4507 12.217ZM19.1542 9.50252C19.3937 9.46766 19.6007 9.31725 19.7079 9.10021L20 8.50824L20.2921 9.10016C20.3993 9.31725 20.6063 9.46766 20.8459 9.50252L21.4991 9.59744L21.0265 10.0582C20.8531 10.2271 20.774 10.4705 20.815 10.7091L20.9265 11.3597L20.3422 11.0525C20.235 10.9962 20.1176 10.9681 20.0001 10.9681C19.8825 10.9681 19.765 10.9962 19.6578 11.0525L19.0735 11.3597L19.1851 10.7091C19.226 10.4705 19.1469 10.227 18.9736 10.0582L18.5009 9.59738L19.1542 9.50252Z" fill="white"/>
</svg>
