<svg width="40" height="40" viewBox="0 0 40 40" fill="none" xmlns="http://www.w3.org/2000/svg">
<rect width="40" height="40" rx="5" fill="#00970F"/>
<g clip-path="url(#clip0)">
<path d="M33.5846 26.3493C33.1289 25.6431 32.2159 25.4579 31.5392 25.9161L31.1829 26.1035L29.3374 24.6319C27.498 23.165 25.2719 22.3664 23.01 22.2587C23.1181 21.6707 23.4129 20.8829 24.1678 20.1278C24.3909 20.1893 25.213 20.2096 25.4699 20.2096C26.9751 20.2096 28.3077 19.9159 29.4427 19.3327C29.6587 19.2217 29.7437 18.9568 29.6328 18.7409C29.5217 18.5249 29.2567 18.44 29.041 18.5509C27.9373 19.1181 26.6078 19.3764 25.0825 19.323C27.8366 17.0229 30.9204 15.1985 32.2908 14.4298C32.0548 15.2312 31.5656 16.4173 30.5845 17.4156C30.4144 17.5887 30.4169 17.8669 30.5899 18.037C30.7629 18.207 31.0411 18.2048 31.2114 18.0316C32.6783 16.5389 33.1687 14.6861 33.3114 13.9588C33.4033 13.491 33.0032 13.0768 32.5164 13.0831C28.2081 13.1653 24.1408 15.0076 23.6007 19.3293C23.5954 19.3717 23.5946 19.4141 23.5971 19.4562C23.3304 19.7162 23.1092 19.9806 22.9263 20.2433V16.5872C24.829 14.8551 25.4294 12.5691 24.9594 10.0071C24.5644 7.85402 23.4977 6.00803 23.0574 5.31439C23.0574 5.31434 23.0574 5.31434 23.0574 5.31434C22.7987 4.9067 22.1906 4.8835 21.9172 5.31434C21.4769 6.00803 20.4102 7.85397 20.0152 10.0071C19.5464 12.5627 20.1414 14.8509 22.0473 16.5865V20.1689C21.8751 19.9308 21.6709 19.6917 21.4293 19.4562C21.4319 19.4141 21.4311 19.3717 21.4258 19.3293C20.8865 15.0141 16.8167 13.1652 12.51 13.083C12.0188 13.0783 11.6237 13.4936 11.715 13.9587C12.4002 17.4506 15.0414 20.2105 19.539 20.2105C19.7975 20.2105 20.6367 20.1889 20.8587 20.1277C21.6151 20.8835 21.9104 21.6686 22.0183 22.2559C20.2781 22.3285 18.5471 22.8105 16.9841 23.7132C16.8069 23.6502 16.6459 23.5968 16.5113 23.5566C15.1974 23.163 13.7366 23.3341 12.5033 24.0256L9.34566 25.7961C8.95279 25.3962 8.32853 25.2947 7.81935 25.5889L6.79555 26.1799C6.19408 26.5273 5.98724 27.2992 6.33453 27.9007L10.0695 34.3697C10.417 34.9714 11.1862 35.1795 11.7903 34.8308L12.8141 34.2397C13.4059 33.898 13.6145 33.1454 13.2901 32.5483L14.0608 31.8647C14.2845 31.6663 14.6002 31.5999 14.8847 31.6915L18.4361 32.833C18.8785 33.0044 19.3685 33.0753 19.8579 33.0253L26.9531 32.2972C27.4664 32.2446 27.9654 32.06 28.3964 31.7636C33.6127 28.1731 33.2998 28.3958 33.3454 28.3531C33.8901 27.8434 33.9929 26.9819 33.5846 26.3493ZM31.1696 14.0589C29.6103 14.9666 27.0273 16.5754 24.6541 18.5366C25.5753 15.2648 28.9944 14.3225 31.1696 14.0589ZM20.3739 18.5379C18.0035 16.5787 15.4235 14.9712 13.8632 14.0626C16.7938 14.4261 19.5729 15.6812 20.3739 18.5379ZM12.7342 14.4291C14.1039 15.1973 17.1892 17.0224 19.9443 19.3235C14.8871 19.5001 13.2463 16.185 12.7342 14.4291ZM24.0949 10.1658C24.4716 12.2191 24.0781 13.949 22.9263 15.3232V6.85781C23.3613 7.70508 23.8589 8.87889 24.0949 10.1658ZM20.8797 10.1658C21.1157 8.87971 21.6127 7.70666 22.0474 6.85963V15.3221C20.8963 13.9481 20.5031 12.2186 20.8797 10.1658ZM28.7895 25.3191L30.3332 26.5501L28.4016 27.5654C27.7681 27.8985 27.0969 28.1082 26.4007 28.1913L26.4111 28.0199C26.4124 27.9973 26.4121 27.9747 26.4099 27.9522C26.3138 26.9335 25.5682 26.1209 24.5967 25.9761C24.5928 25.9755 24.5888 25.9749 24.5848 25.9745L21.058 25.5464C19.9407 25.3781 19.7887 24.8884 18.0587 24.138C21.5311 22.4517 25.7382 22.8859 28.7895 25.3191ZM32.7654 27.6913L27.8982 31.0396C27.5884 31.2527 27.2306 31.3852 26.8635 31.4229L19.7683 32.151C19.2832 32.2007 18.9826 32.0858 18.7177 32.0003L15.1536 30.8547C14.5746 30.6688 13.9324 30.8037 13.4776 31.2073L12.8428 31.7703L11.4208 29.3073C11.2995 29.0971 11.0306 29.0252 10.8205 29.1465C10.6104 29.2678 10.5383 29.5366 10.6597 29.7468C10.9035 30.169 12.0179 32.0993 12.5139 32.9584C12.6189 33.1403 12.5564 33.3736 12.3746 33.4786L11.3508 34.0696C11.1682 34.175 10.9357 34.1123 10.8306 33.9302L7.09584 27.4614C6.9909 27.2796 7.05336 27.0462 7.23523 26.9412L8.25898 26.3501C8.44203 26.2444 8.67435 26.3079 8.77918 26.4895L9.63031 27.9638C9.75172 28.1739 10.0205 28.2459 10.2306 28.1246C10.4408 28.0032 10.5128 27.7345 10.3914 27.5243L9.8215 26.5372L12.9334 24.7923C13.9602 24.2165 15.1725 24.0731 16.2593 24.3986C18.9875 25.2155 19.3155 26.175 20.934 26.4164C20.938 26.417 20.942 26.4176 20.9459 26.418L24.4726 26.846C25.0307 26.932 25.462 27.4047 25.5316 28.003L25.5164 28.2543L21.0333 28.5471C20.7911 28.5629 20.6076 28.7721 20.6234 29.0143C20.6386 29.2467 20.8319 29.4251 21.0615 29.4251C21.0712 29.4251 21.0808 29.4248 21.0906 29.4241C25.8353 28.9955 26.8857 29.3552 28.8106 28.3433C32.1658 26.5782 31.9769 26.6829 32.0213 26.6513C32.2927 26.4591 32.6569 26.5325 32.8462 26.8259C33.0222 27.0987 32.9863 27.4654 32.7654 27.6913Z" fill="white"/>
</g>
<defs>
<clipPath id="clip0">
<rect width="30" height="30" fill="white" transform="translate(5 5)"/>
</clipPath>
</defs>
</svg>
