<svg width="27" height="26" viewBox="0 0 27 26" fill="none" xmlns="http://www.w3.org/2000/svg">
<path d="M22.1506 0H4.8494C2.17535 0 0 2.09478 0 4.66979V21.3302C0 23.9052 2.17535 26 4.8494 26H22.1506C24.8247 26 27 23.9052 27 21.3302V4.66979C27 2.09478 24.8247 0 22.1506 0ZM22.8176 20.2902H14.1644C13.4039 22.4581 10.209 22.4614 9.44736 20.2902H4.18236C3.13179 20.2902 3.13153 18.7608 4.18236 18.7608H9.44736C10.2078 16.5929 13.4028 16.5896 14.1644 18.7608H22.8176C23.8682 18.7608 23.8685 20.2902 22.8176 20.2902ZM22.8176 13.7647H20.9409C20.1803 15.9326 16.9855 15.9359 16.2238 13.7647H4.18236C3.13179 13.7647 3.13153 12.2353 4.18236 12.2353H16.2238C16.9843 10.0674 20.1792 10.0641 20.9409 12.2353H22.8177C23.8682 12.2353 23.8685 13.7647 22.8176 13.7647ZM22.8176 7.23922H10.7762C10.0156 9.40707 6.82077 9.41038 6.05913 7.23922H4.18236C3.13179 7.23922 3.13153 5.70979 4.18236 5.70979H6.05913C6.81961 3.54194 10.0145 3.53864 10.7762 5.70979H22.8176C23.8682 5.70979 23.8685 7.23922 22.8176 7.23922Z" fill="#AE5EFF"/>
<path d="M11.8059 18.6588C10.6152 18.6588 10.6158 20.3921 11.8059 20.3921C12.9967 20.3922 12.9961 18.6588 11.8059 18.6588Z" fill="#AE5EFF"/>
<path d="M8.41764 5.60782C7.22684 5.60782 7.22748 7.34113 8.41764 7.34113C9.60838 7.34119 9.60775 5.60782 8.41764 5.60782Z" fill="#AE5EFF"/>
<path d="M18.5823 12.1333C17.3915 12.1333 17.3921 13.8666 18.5823 13.8666C19.7731 13.8667 19.7725 12.1333 18.5823 12.1333Z" fill="#AE5EFF"/>
</svg>
