<svg width="40" height="40" viewBox="0 0 40 40" fill="none" xmlns="http://www.w3.org/2000/svg">
<rect width="40" height="40" rx="5" fill="#009595"/>
<path d="M11.2625 25.1563C12.5798 26.2898 14.1758 27.0511 15.8856 27.3618C17.5955 27.6724 19.3572 27.5211 20.9891 26.9235C21.0635 26.897 21.1299 26.8522 21.1824 26.7932C21.2348 26.7342 21.2715 26.6629 21.2891 26.586C21.3066 26.5085 21.3042 26.4279 21.2821 26.3516C21.2599 26.2754 21.2188 26.206 21.1625 26.15L17.9281 22.9203C17.8618 22.8499 17.7752 22.8017 17.6804 22.7824C17.5856 22.7631 17.4871 22.7736 17.3984 22.8125C16.1695 23.4302 14.8129 23.7512 13.4375 23.75C12.9868 23.7451 12.537 23.7059 12.0922 23.6328C12.3039 21.8069 13.0807 20.0927 14.3141 18.7297L16.0906 20.5016C16.1779 20.5882 16.2958 20.637 16.4188 20.6375C16.4805 20.6379 16.5416 20.626 16.5987 20.6027C16.6558 20.5794 16.7078 20.545 16.7516 20.5016C17.3318 19.9247 17.6734 19.1503 17.7081 18.3328C17.7429 17.5153 17.4683 16.7147 16.9391 16.0906C16.9014 16.0384 16.8534 15.9945 16.798 15.9616C16.7426 15.9288 16.6811 15.9077 16.6172 15.8997C16.5533 15.8917 16.4884 15.8969 16.4266 15.9151C16.3648 15.9332 16.3075 15.9639 16.2581 16.0052C16.2087 16.0466 16.1683 16.0976 16.1395 16.1552C16.1107 16.2128 16.0941 16.2758 16.0907 16.3401C16.0874 16.4044 16.0972 16.4687 16.1198 16.529C16.1424 16.5893 16.1771 16.6443 16.2219 16.6906C16.5439 17.0759 16.7337 17.5545 16.7632 18.0558C16.7927 18.557 16.6605 19.0546 16.386 19.475L14.9797 18.0688C15.1297 17.9328 15.2797 17.8063 15.4485 17.6797C15.546 17.5995 15.6078 17.4838 15.6201 17.3581C15.6324 17.2324 15.5943 17.107 15.5141 17.0094C15.4339 16.9118 15.3182 16.8501 15.1925 16.8377C15.0668 16.8254 14.9414 16.8636 14.8438 16.9438C14.5437 17.1838 14.2573 17.4405 13.9859 17.7125H13.9625C13.9625 17.7125 13.9625 17.7125 13.9625 17.7406C12.3624 19.3422 11.3683 21.4498 11.15 23.7031C10.0417 22.5063 9.28338 21.028 8.95779 19.4296C8.63219 17.8312 8.75184 16.1741 9.30366 14.639C9.85549 13.104 10.8183 11.7499 12.087 10.7247C13.3558 9.69942 14.8818 9.0423 16.4984 8.82501L16.7188 8.80157C16.7246 9.81535 16.9506 10.8157 17.3812 11.7336C17.8118 12.6514 18.4366 13.4647 19.2125 14.1172C19.2974 14.1898 19.4055 14.2297 19.5172 14.2297C19.5853 14.2291 19.6524 14.2137 19.7139 14.1846C19.7754 14.1555 19.8299 14.1133 19.8734 14.0609C19.9132 14.0139 19.9433 13.9594 19.9619 13.9007C19.9806 13.842 19.9876 13.7802 19.9823 13.7188C19.9771 13.6574 19.9598 13.5977 19.9315 13.543C19.9032 13.4883 19.8643 13.4397 19.8172 13.4C19.1393 12.8298 18.5945 12.1179 18.2212 11.3146C17.8479 10.5112 17.655 9.63587 17.6563 8.75001C19.1713 8.75204 20.6608 9.14054 21.9839 9.87876C23.3069 10.617 24.4198 11.6805 25.2172 12.9688L22.1422 14.5859C21.7678 14.7692 21.3541 14.8578 20.9375 14.8438C20.0195 14.8427 19.1059 14.9705 18.2234 15.2234C18.1099 15.2625 18.0158 15.3437 17.9603 15.4502C17.9049 15.5566 17.8924 15.6803 17.9255 15.7957C17.9585 15.9111 18.0346 16.0095 18.138 16.0704C18.2414 16.1314 18.3643 16.1504 18.4813 16.1234C19.2804 15.8971 20.1069 15.782 20.9375 15.7813C21.5029 15.7876 22.0613 15.6557 22.5641 15.3969L26.0938 13.55C26.1484 13.521 26.1968 13.4814 26.2361 13.4336C26.2754 13.3857 26.3048 13.3306 26.3227 13.2713C26.3406 13.212 26.3465 13.1498 26.3402 13.0882C26.3339 13.0267 26.3155 12.9669 26.2859 12.9125C25.407 11.3015 24.0936 9.96942 22.4951 9.06784C20.8966 8.16625 19.0772 7.73132 17.2438 7.81251C17 7.81251 16.7516 7.84064 16.5031 7.86876L15.425 6.22814C15.3759 6.15114 15.3054 6.09016 15.2221 6.05269C15.1389 6.01521 15.0464 6.00288 14.9563 6.0172C13.1555 6.25737 11.4564 6.99118 10.0469 8.13738C8.63748 9.28358 7.57271 10.7975 6.9705 12.5114C6.36828 14.2254 6.25212 16.0726 6.63486 17.8485C7.0176 19.6244 7.88433 21.2597 9.13907 22.5735C9.69442 23.5492 10.4126 24.4227 11.2625 25.1563ZM17.5109 23.7969L19.9625 26.2531C18.609 26.6151 17.1891 26.6527 15.8183 26.3627C14.4475 26.0728 13.1645 25.4635 12.0734 24.5844C13.924 24.8631 15.8155 24.5891 17.5109 23.7969ZM7.41407 14.6422C7.66724 12.7449 8.52087 10.9784 9.85012 9.60105C11.1794 8.22373 12.9144 7.30789 14.8016 6.98751L15.4906 8.05157C13.5255 8.50556 11.7455 9.54783 10.3879 11.0394C9.03035 12.531 8.15975 14.401 7.8922 16.4C7.79141 17.2031 7.79141 18.0157 7.8922 18.8188C7.40184 17.4847 7.23789 16.0526 7.41407 14.6422Z" fill="white"/>
<path d="M20.4688 11.0938C20.7276 11.0938 20.9375 10.8839 20.9375 10.625C20.9375 10.3661 20.7276 10.1562 20.4688 10.1562C20.2099 10.1562 20 10.3661 20 10.625C20 10.8839 20.2099 11.0938 20.4688 11.0938Z" fill="white"/>
<path d="M28.9062 13.8406V20.9375C28.9062 21.6834 28.6099 22.3988 28.0825 22.9262C27.555 23.4537 26.8397 23.75 26.0937 23.75C25.3478 23.75 24.6325 23.4537 24.105 22.9262C23.5776 22.3988 23.2812 21.6834 23.2812 20.9375V19.5312L24.4062 20.375C24.5057 20.4496 24.6307 20.4816 24.7538 20.464C24.8769 20.4465 24.9879 20.3807 25.0625 20.2812C25.1371 20.1818 25.1691 20.0568 25.1515 19.9337C25.134 19.8106 25.0682 19.6996 24.9687 19.625L23.0937 18.2188C23.0238 18.1666 22.9406 18.135 22.8537 18.1276C22.7667 18.1201 22.6794 18.1371 22.6016 18.1766C22.5243 18.2155 22.4593 18.2751 22.4137 18.3488C22.3682 18.4224 22.344 18.5072 22.3438 18.5938V20.9375C22.3438 21.9321 22.7388 22.8859 23.4421 23.5891C24.1454 24.2924 25.0992 24.6875 26.0937 24.6875C27.0883 24.6875 28.0421 24.2924 28.7454 23.5891C29.4487 22.8859 29.8437 21.9321 29.8437 20.9375V13.8406C30.241 13.7327 30.5916 13.497 30.8416 13.17C31.0916 12.843 31.227 12.4429 31.227 12.0312C31.227 11.6196 31.0916 11.2195 30.8416 10.8925C30.5916 10.5655 30.241 10.3298 29.8437 10.2219V6.40625C29.8437 6.28193 29.7944 6.1627 29.7065 6.07479C29.6185 5.98689 29.4993 5.9375 29.375 5.9375C29.2507 5.9375 29.1314 5.98689 29.0435 6.07479C28.9556 6.1627 28.9062 6.28193 28.9062 6.40625V10.2219C28.509 10.3298 28.1584 10.5655 27.9084 10.8925C27.6584 11.2195 27.523 11.6196 27.523 12.0312C27.523 12.4429 27.6584 12.843 27.9084 13.17C28.1584 13.497 28.509 13.7327 28.9062 13.8406ZM29.375 11.0938C29.5604 11.0938 29.7417 11.1487 29.8958 11.2517C30.05 11.3548 30.1702 11.5012 30.2411 11.6725C30.3121 11.8438 30.3307 12.0323 30.2945 12.2141C30.2583 12.396 30.169 12.5631 30.0379 12.6942C29.9068 12.8253 29.7398 12.9146 29.5579 12.9507C29.376 12.9869 29.1875 12.9683 29.0162 12.8974C28.8449 12.8264 28.6985 12.7063 28.5955 12.5521C28.4925 12.3979 28.4375 12.2167 28.4375 12.0312C28.4375 11.7826 28.5363 11.5442 28.7121 11.3683C28.8879 11.1925 29.1264 11.0938 29.375 11.0938Z" fill="white"/>
<path d="M14.4828 11.2438C14.3611 11.2233 14.2362 11.2517 14.1352 11.3228C14.0343 11.3939 13.9655 11.5019 13.9437 11.6234C13.8361 12.235 13.9755 12.8644 14.3315 13.3732C14.6874 13.8821 15.2307 14.2289 15.8422 14.3375H15.9266C16.0509 14.3481 16.1743 14.3088 16.2697 14.2284C16.3651 14.1479 16.4246 14.0329 16.4352 13.9086C16.4457 13.7843 16.4065 13.6609 16.326 13.5655C16.2456 13.4701 16.1306 13.4106 16.0062 13.4C15.6383 13.3402 15.3092 13.1367 15.0912 12.8344C14.8733 12.532 14.7842 12.1555 14.8437 11.7875C14.866 11.6677 14.8408 11.544 14.7735 11.4425C14.7061 11.341 14.6018 11.2697 14.4828 11.2438Z" fill="white"/>
<path d="M13.6719 15.3125C13.6719 15.1882 13.6225 15.069 13.5346 14.981C13.4467 14.8931 13.3274 14.8438 13.2031 14.8438C12.8923 14.8438 12.5943 14.7203 12.3745 14.5005C12.1547 14.2807 12.0312 13.9827 12.0312 13.6719C12.0312 13.5476 11.9819 13.4283 11.894 13.3404C11.806 13.2525 11.6868 13.2031 11.5625 13.2031C11.4382 13.2031 11.319 13.2525 11.231 13.3404C11.1431 13.4283 11.0938 13.5476 11.0938 13.6719C11.095 14.2309 11.3176 14.7667 11.7129 15.1621C12.1083 15.5574 12.6441 15.78 13.2031 15.7812C13.3274 15.7812 13.4467 15.7319 13.5346 15.644C13.6225 15.556 13.6719 15.4368 13.6719 15.3125Z" fill="white"/>
<path d="M10.625 16.9531C10.625 16.8288 10.5756 16.7096 10.4877 16.6217C10.3998 16.5338 10.2806 16.4844 10.1562 16.4844C10.0319 16.4844 9.9127 16.5338 9.82479 16.6217C9.73689 16.7096 9.6875 16.8288 9.6875 16.9531C9.68874 17.5122 9.91137 18.048 10.3067 18.4433C10.702 18.8386 11.2378 19.0613 11.7969 19.0625C11.9212 19.0625 12.0404 19.0131 12.1283 18.9252C12.2162 18.8373 12.2656 18.7181 12.2656 18.5938C12.2656 18.4694 12.2162 18.3502 12.1283 18.2623C12.0404 18.1744 11.9212 18.125 11.7969 18.125C11.4861 18.125 11.188 18.0015 10.9682 17.7818C10.7485 17.562 10.625 17.2639 10.625 16.9531Z" fill="white"/>
<path d="M7.5791 30.0969C8.14338 30.0963 8.68444 29.8721 9.08378 29.4734C9.19393 29.3632 9.32472 29.2757 9.4687 29.216C9.61267 29.1563 9.76699 29.1256 9.92285 29.1256C10.0787 29.1256 10.233 29.1563 10.377 29.216C10.521 29.2757 10.6518 29.3632 10.7619 29.4734C11.161 29.8725 11.7022 30.0966 12.2666 30.0966C12.831 30.0966 13.3722 29.8725 13.7713 29.4734C13.8814 29.3632 14.0122 29.2757 14.1562 29.216C14.3002 29.1563 14.4545 29.1256 14.6103 29.1256C14.7662 29.1256 14.9205 29.1563 15.0645 29.216C15.2085 29.2757 15.3393 29.3632 15.4494 29.4734C15.8485 29.8725 16.3897 30.0966 16.9541 30.0966C17.5185 30.0966 18.0597 29.8725 18.4588 29.4734C18.5689 29.3632 18.6997 29.2757 18.8437 29.216C18.9877 29.1563 19.142 29.1256 19.2978 29.1256C19.4537 29.1256 19.608 29.1563 19.752 29.216C19.896 29.2757 20.0268 29.3632 20.1369 29.4734C20.536 29.8725 21.0772 30.0966 21.6416 30.0966C22.206 30.0966 22.7472 29.8725 23.1463 29.4734C23.2564 29.3632 23.3872 29.2757 23.5312 29.216C23.6752 29.1563 23.8295 29.1256 23.9853 29.1256C24.1412 29.1256 24.2955 29.1563 24.4395 29.216C24.5835 29.2757 24.7143 29.3632 24.8244 29.4734C25.2235 29.8725 25.7647 30.0966 26.3291 30.0966C26.8935 30.0966 27.4347 29.8725 27.8338 29.4734C27.9439 29.3632 28.0747 29.2757 28.2187 29.216C28.3627 29.1563 28.517 29.1256 28.6728 29.1256C28.8287 29.1256 28.983 29.1563 29.127 29.216C29.271 29.2757 29.4018 29.3632 29.5119 29.4734C29.911 29.8725 30.4522 30.0966 31.0166 30.0966C31.581 30.0966 32.1222 29.8725 32.5213 29.4734C32.6512 29.3426 32.8102 29.2442 32.9854 29.1864C33.1605 29.1286 33.3468 29.1129 33.5291 29.1406C33.5907 29.1492 33.6533 29.1457 33.7135 29.1301C33.7736 29.1145 33.8302 29.0872 33.8798 29.0497C33.9294 29.0123 33.9712 28.9655 34.0027 28.9119C34.0342 28.8583 34.0549 28.7991 34.0635 28.7375C34.0721 28.6759 34.0685 28.6133 34.0529 28.5531C34.0373 28.493 34.01 28.4364 33.9726 28.3868C33.9352 28.3372 33.8883 28.2954 33.8347 28.2639C33.7812 28.2324 33.7219 28.2117 33.6603 28.2031C33.334 28.155 33.0008 28.1837 32.6875 28.2871C32.3742 28.3905 32.0894 28.5656 31.8557 28.7984C31.7455 28.9087 31.6147 28.9962 31.4708 29.0559C31.3268 29.1155 31.1725 29.1463 31.0166 29.1463C30.8607 29.1463 30.7064 29.1155 30.5624 29.0559C30.4185 28.9962 30.2877 28.9087 30.1775 28.7984C29.7784 28.3994 29.2372 28.1752 28.6728 28.1752C28.1085 28.1752 27.5673 28.3994 27.1682 28.7984C27.058 28.9087 26.9272 28.9962 26.7833 29.0559C26.6393 29.1155 26.485 29.1463 26.3291 29.1463C26.1732 29.1463 26.0189 29.1155 25.8749 29.0559C25.731 28.9962 25.6002 28.9087 25.49 28.7984C25.0909 28.3994 24.5497 28.1752 23.9853 28.1752C23.421 28.1752 22.8798 28.3994 22.4807 28.7984C22.3705 28.9087 22.2397 28.9962 22.0958 29.0559C21.9518 29.1155 21.7975 29.1463 21.6416 29.1463C21.4857 29.1463 21.3314 29.1155 21.1874 29.0559C21.0435 28.9962 20.9127 28.9087 20.8025 28.7984C20.4034 28.3994 19.8622 28.1752 19.2978 28.1752C18.7335 28.1752 18.1923 28.3994 17.7932 28.7984C17.683 28.9087 17.5522 28.9962 17.4082 29.0559C17.2643 29.1155 17.11 29.1463 16.9541 29.1463C16.7982 29.1463 16.6439 29.1155 16.4999 29.0559C16.356 28.9962 16.2252 28.9087 16.115 28.7984C15.7159 28.3994 15.1747 28.1752 14.6103 28.1752C14.046 28.1752 13.5048 28.3994 13.1057 28.7984C12.9955 28.9087 12.8647 28.9962 12.7207 29.0559C12.5768 29.1155 12.4225 29.1463 12.2666 29.1463C12.1107 29.1463 11.9564 29.1155 11.8124 29.0559C11.6685 28.9962 11.5377 28.9087 11.4275 28.7984C11.0284 28.3994 10.4872 28.1752 9.92285 28.1752C9.35849 28.1752 8.81725 28.3994 8.41816 28.7984C8.30802 28.9087 8.17722 28.9962 8.03325 29.0559C7.88928 29.1155 7.73495 29.1463 7.5791 29.1463C7.42324 29.1463 7.26892 29.1155 7.12495 29.0559C6.98097 28.9962 6.85018 28.9087 6.74003 28.7984C6.65177 28.7102 6.53205 28.6606 6.40722 28.6606C6.28239 28.6606 6.16268 28.7102 6.07441 28.7984C5.98614 28.8867 5.93655 29.0064 5.93655 29.1312C5.93655 29.2561 5.98614 29.3758 6.07441 29.4641C6.47221 29.8662 7.01346 30.0938 7.5791 30.0969Z" fill="white"/>
<path d="M33.9266 31.1516C33.5275 30.7525 32.9862 30.5284 32.4219 30.5284C31.8575 30.5284 31.3163 30.7525 30.9172 31.1516C30.807 31.2618 30.6762 31.3493 30.5323 31.409C30.3883 31.4687 30.234 31.4994 30.0781 31.4994C29.9223 31.4994 29.7679 31.4687 29.624 31.409C29.48 31.3493 29.3492 31.2618 29.2391 31.1516C28.84 30.7525 28.2987 30.5284 27.7344 30.5284C27.17 30.5284 26.6288 30.7525 26.2297 31.1516C26.1195 31.2618 25.9887 31.3493 25.8448 31.409C25.7008 31.4687 25.5465 31.4994 25.3906 31.4994C25.2348 31.4994 25.0804 31.4687 24.9365 31.409C24.7925 31.3493 24.6617 31.2618 24.5516 31.1516C24.1525 30.7525 23.6112 30.5284 23.0469 30.5284C22.4825 30.5284 21.9413 30.7525 21.5422 31.1516C21.432 31.2618 21.3012 31.3493 21.1573 31.409C21.0133 31.4687 20.859 31.4994 20.7031 31.4994C20.5473 31.4994 20.3929 31.4687 20.249 31.409C20.105 31.3493 19.9742 31.2618 19.8641 31.1516C19.465 30.7525 18.9237 30.5284 18.3594 30.5284C17.795 30.5284 17.2538 30.7525 16.8547 31.1516C16.7445 31.2618 16.6137 31.3493 16.4698 31.409C16.3258 31.4687 16.1715 31.4994 16.0156 31.4994C15.8598 31.4994 15.7054 31.4687 15.5615 31.409C15.4175 31.3493 15.2867 31.2618 15.1766 31.1516C14.7775 30.7525 14.2362 30.5284 13.6719 30.5284C13.1075 30.5284 12.5663 30.7525 12.1672 31.1516C12.057 31.2618 11.9262 31.3493 11.7823 31.409C11.6383 31.4687 11.484 31.4994 11.3281 31.4994C11.1723 31.4994 11.0179 31.4687 10.874 31.409C10.73 31.3493 10.5992 31.2618 10.4891 31.1516C10.09 30.7525 9.54872 30.5284 8.98437 30.5284C8.42002 30.5284 7.87877 30.7525 7.47968 31.1516C7.34909 31.2815 7.19002 31.3792 7.01509 31.437C6.84015 31.4948 6.65416 31.511 6.47187 31.4844C6.34755 31.467 6.22141 31.4997 6.12119 31.5753C6.02098 31.6509 5.9549 31.7632 5.9375 31.8875C5.92009 32.0118 5.95278 32.138 6.02839 32.2382C6.10399 32.3384 6.2163 32.4045 6.34062 32.4219C6.66705 32.4715 7.00059 32.4435 7.31416 32.34C7.62772 32.2366 7.91248 32.0607 8.14531 31.8266C8.25545 31.7163 8.38625 31.6288 8.53022 31.5691C8.67419 31.5094 8.82852 31.4787 8.98437 31.4787C9.14022 31.4787 9.29455 31.5094 9.43852 31.5691C9.58249 31.6288 9.71329 31.7163 9.82343 31.8266C10.2225 32.2256 10.7638 32.4497 11.3281 32.4497C11.8925 32.4497 12.4337 32.2256 12.8328 31.8266C12.9429 31.7163 13.0737 31.6288 13.2177 31.5691C13.3617 31.5094 13.516 31.4787 13.6719 31.4787C13.8277 31.4787 13.982 31.5094 14.126 31.5691C14.27 31.6288 14.4008 31.7163 14.5109 31.8266C14.91 32.2256 15.4513 32.4497 16.0156 32.4497C16.58 32.4497 17.1212 32.2256 17.5203 31.8266C17.6304 31.7163 17.7612 31.6288 17.9052 31.5691C18.0492 31.5094 18.2035 31.4787 18.3594 31.4787C18.5152 31.4787 18.6695 31.5094 18.8135 31.5691C18.9575 31.6288 19.0883 31.7163 19.1984 31.8266C19.5975 32.2256 20.1388 32.4497 20.7031 32.4497C21.2675 32.4497 21.8087 32.2256 22.2078 31.8266C22.3179 31.7163 22.4487 31.6288 22.5927 31.5691C22.7367 31.5094 22.891 31.4787 23.0469 31.4787C23.2027 31.4787 23.357 31.5094 23.501 31.5691C23.645 31.6288 23.7758 31.7163 23.8859 31.8266C24.285 32.2256 24.8263 32.4497 25.3906 32.4497C25.955 32.4497 26.4962 32.2256 26.8953 31.8266C27.0054 31.7163 27.1362 31.6288 27.2802 31.5691C27.4242 31.5094 27.5785 31.4787 27.7344 31.4787C27.8902 31.4787 28.0445 31.5094 28.1885 31.5691C28.3325 31.6288 28.4633 31.7163 28.5734 31.8266C28.9725 32.2256 29.5138 32.4497 30.0781 32.4497C30.6425 32.4497 31.1837 32.2256 31.5828 31.8266C31.6929 31.7163 31.8237 31.6288 31.9677 31.5691C32.1117 31.5094 32.266 31.4787 32.4219 31.4787C32.5777 31.4787 32.732 31.5094 32.876 31.5691C33.02 31.6288 33.1508 31.7163 33.2609 31.8266C33.3492 31.9148 33.4689 31.9644 33.5937 31.9644C33.7186 31.9644 33.8383 31.9148 33.9266 31.8266C34.0148 31.7383 34.0644 31.6186 34.0644 31.4937C34.0644 31.3689 34.0148 31.2492 33.9266 31.1609V31.1516Z" fill="white"/>
</svg>
