<svg width="25" height="25" viewBox="0 0 25 25" fill="none" xmlns="http://www.w3.org/2000/svg">
<g clip-path="url(#clip0)">
<path d="M12.5 6.56854L3.58388 13.919C3.58388 13.9293 3.58127 13.9446 3.57606 13.9654C3.57095 13.986 3.56824 14.001 3.56824 14.0117V21.4547C3.56824 21.7235 3.66649 21.9564 3.86294 22.1525C4.05933 22.3487 4.2919 22.4475 4.56069 22.4475H10.515V16.4928H14.4851V22.4477H20.4393C20.7081 22.4477 20.941 22.3492 21.1371 22.1525C21.3335 21.9566 21.4321 21.7235 21.4321 21.4547V14.0117C21.4321 13.9704 21.4265 13.9392 21.4165 13.919L12.5 6.56854Z" fill="black"/>
<path d="M24.8273 12.2442L21.4316 9.42195V3.09522C21.4316 2.95059 21.3851 2.83164 21.2918 2.73855C21.1993 2.64557 21.0803 2.59908 20.9354 2.59908H17.9582C17.8134 2.59908 17.6945 2.64557 17.6013 2.73855C17.5084 2.83164 17.462 2.95064 17.462 3.09522V6.11898L13.6784 2.95553C13.348 2.68674 12.9551 2.55237 12.5002 2.55237C12.0453 2.55237 11.6525 2.68674 11.3217 2.95553L0.172127 12.2442C0.0687699 12.3267 0.0121218 12.4378 0.00158518 12.5774C-0.00889716 12.7169 0.0272207 12.8387 0.110047 12.942L1.07144 14.0895C1.15426 14.1825 1.26267 14.2394 1.39709 14.2602C1.5212 14.2706 1.6453 14.2343 1.76941 14.1517L12.4998 5.20408L23.2304 14.1516C23.3133 14.2237 23.4216 14.2598 23.556 14.2598H23.6026C23.7369 14.2393 23.845 14.1821 23.9283 14.0893L24.8898 12.942C24.9725 12.8384 25.0087 12.7168 24.9979 12.5772C24.9873 12.438 24.9305 12.3269 24.8273 12.2442Z" fill="black"/>
</g>
<defs>
<clipPath id="clip0">
<rect width="25" height="25" fill="white"/>
</clipPath>
</defs>
</svg>
