<svg width="40" height="40" viewBox="0 0 40 40" fill="none" xmlns="http://www.w3.org/2000/svg">
<rect width="40" height="40" rx="5" fill="#003687"/>
<path d="M13.4988 18.5002H9.99925C9.72316 18.5002 9.49933 18.7241 9.49933 19.0002V23.9994C9.49933 24.2755 9.72316 24.4994 9.99925 24.4994H13.4988C13.7749 24.4994 13.9987 24.2755 13.9987 23.9994V19.0002C13.9987 18.7241 13.7749 18.5002 13.4988 18.5002ZM12.9988 23.4995H10.4992V19.5001H12.9988V23.4995Z" fill="white"/>
<path d="M21.9975 18.5002H18.498C18.2219 18.5002 17.9981 18.7241 17.9981 19.0002V23.9994C17.9981 24.2755 18.2219 24.4994 18.498 24.4994H21.9975C22.2736 24.4994 22.4975 24.2755 22.4975 23.9994V19.0002C22.4975 18.7241 22.2736 18.5002 21.9975 18.5002ZM21.4976 23.4995H18.998V19.5001H21.4976V23.4995Z" fill="white"/>
<path d="M21.9975 26.499H18.498C18.2219 26.499 17.9981 26.7229 17.9981 26.9989V31.9982C17.9981 32.2743 18.2219 32.4981 18.498 32.4981H21.9975C22.2736 32.4981 22.4975 32.2743 22.4975 31.9982V26.9989C22.4975 26.7229 22.2736 26.499 21.9975 26.499ZM21.4976 31.4983H18.998V27.4989H21.4976V31.4983Z" fill="white"/>
<path d="M29.9964 18.5002H26.4969C26.2208 18.5002 25.9969 18.7241 25.9969 19.0002V23.9994C25.9969 24.2755 26.2208 24.4994 26.4969 24.4994H29.9964C30.2725 24.4994 30.4963 24.2755 30.4963 23.9994V19.0002C30.4963 18.7241 30.2725 18.5002 29.9964 18.5002ZM29.4965 23.4995H26.9969V19.5001H29.4965V23.4995Z" fill="white"/>
<path d="M13.4988 26.499H9.99925C9.72316 26.499 9.49933 26.7229 9.49933 26.9989V31.9982C9.49933 32.2743 9.72316 32.4981 9.99925 32.4981H13.4988C13.7749 32.4981 13.9987 32.2743 13.9987 31.9982V26.9989C13.9987 26.7229 13.7749 26.499 13.4988 26.499ZM12.9988 31.4983H10.4992V27.4989H12.9988V31.4983Z" fill="white"/>
<path d="M29.9964 26.499H26.4969C26.2208 26.499 25.9969 26.7229 25.9969 26.9989V31.9982C25.9969 32.2743 26.2208 32.4981 26.4969 32.4981H29.9964C30.2725 32.4981 30.4963 32.2743 30.4963 31.9982V26.9989C30.4963 26.7229 30.2725 26.499 29.9964 26.499ZM29.4965 31.4983H26.9969V27.4989H29.4965V31.4983Z" fill="white"/>
<path d="M32.996 33.9995V17.0019H33.4959C33.772 17.0019 33.9958 16.778 33.9958 16.502V14.0023C33.9958 13.7262 33.772 13.5024 33.4959 13.5024H32.996V11.5027C32.996 11.2266 32.7721 11.0028 32.4961 11.0028H31.4962V5.50355C31.4962 5.22746 31.2724 5.00363 30.9963 5.00363H8.99943C8.72334 5.00363 8.49951 5.22746 8.49951 5.50355V11.0028H7.49967C7.22357 11.0028 6.99975 11.2266 6.99975 11.5027V13.5024H6.49982C6.22373 13.5024 5.9999 13.7262 5.9999 14.0023V16.5019C5.9999 16.778 6.22373 17.0018 6.49982 17.0018H6.99975V33.9993H5V34.9992H7.49967H32.4961H35V33.9993H32.996V33.9995ZM9.49936 6.00348H30.4963V11.0028H9.49936V6.00348ZM7.99959 12.0026H8.99943H30.9962H31.9961V13.5024H7.99959V12.0026ZM31.9961 33.9995H7.99959V17.0019H31.9961V33.9995H31.9961ZM7.49967 16.002H6.99975V14.5023H7.49967H32.4961H32.996V16.002H32.4961H7.49967Z" fill="white"/>
<path d="M19.23 7.71242C19.1505 7.50922 19.0388 7.33373 18.8948 7.18602C18.7508 7.0383 18.5775 6.9224 18.3751 6.83844C18.1726 6.75448 17.9484 6.71246 17.7024 6.71246C17.4565 6.71246 17.2319 6.75406 17.0287 6.83733C16.8255 6.92059 16.6515 7.03643 16.5068 7.1849C16.362 7.33338 16.25 7.50922 16.1704 7.71248C16.0909 7.91569 16.0512 8.13653 16.0512 8.375C16.0512 8.61348 16.0909 8.83432 16.1704 9.03752C16.25 9.24073 16.362 9.41657 16.5068 9.5651C16.6515 9.71358 16.8255 9.82942 17.0287 9.91268C17.2319 9.99594 17.4565 10.0375 17.7024 10.0375C17.9484 10.0375 18.1726 9.99594 18.3751 9.91268C18.5776 9.82948 18.7508 9.71358 18.8948 9.5651C19.0387 9.41662 19.1505 9.24078 19.23 9.03752C19.3095 8.83432 19.3492 8.61348 19.3492 8.375C19.3492 8.13647 19.3094 7.91563 19.23 7.71242ZM18.6574 8.85524C18.6102 8.99698 18.5423 9.11698 18.4538 9.21518C18.3653 9.31344 18.2577 9.38879 18.1309 9.44129C18.0042 9.49379 17.8613 9.52004 17.7024 9.52004C17.5434 9.52004 17.4002 9.49379 17.2727 9.44129C17.1452 9.38879 17.0369 9.31344 16.9476 9.21518C16.8584 9.11692 16.7898 8.99698 16.7418 8.85524C16.6938 8.7135 16.6698 8.55342 16.6698 8.37494C16.6698 8.19647 16.6938 8.03639 16.7418 7.89465C16.7898 7.75291 16.8584 7.63256 16.9476 7.5336C17.0369 7.43463 17.1452 7.35887 17.2727 7.30637C17.4002 7.25387 17.5434 7.22762 17.7024 7.22762C17.8613 7.22762 18.0042 7.25387 18.1309 7.30637C18.2577 7.35887 18.3653 7.43463 18.4538 7.5336C18.5423 7.63256 18.6101 7.75291 18.6574 7.89465C18.7046 8.03639 18.7282 8.19647 18.7282 8.37494C18.7282 8.55342 18.7047 8.7135 18.6574 8.85524Z" fill="white"/>
<path d="M14.9623 6.74844V8.14772H13.4371V6.74844H12.8274V10.0015H13.4371V8.57967H14.9623V10.0015H15.572V6.74844H14.9623Z" fill="white"/>
<path d="M25.5088 9.502V6.74844H24.9036V10.0015H26.8113V9.502H25.5088Z" fill="white"/>
<path d="M19.3762 6.74844V7.24561H20.3593V10.0015H20.9645V7.24561H21.943V6.74844H19.3762Z" fill="white"/>
<path d="M24.3795 7.22985V6.74844H22.3278V10.0015H24.3795V9.51776H22.9374V8.59766H24.0735V8.13196H22.9374V7.22985H24.3795Z" fill="white"/>
</svg>
