<svg width="40" height="40" viewBox="0 0 40 40" fill="none" xmlns="http://www.w3.org/2000/svg">
<rect width="40" height="40" rx="5" fill="#B0358E"/>
<path d="M19.0364 16.4548C18.363 17.1284 18.363 18.2241 19.0364 18.8975L19.0382 18.8993C19.3749 19.236 19.8171 19.4042 20.2595 19.4042C20.7017 19.4042 21.1442 19.236 21.4806 18.8993L22.0666 18.3136C22.7399 17.64 22.7399 16.5443 22.0647 15.8691C21.3914 15.1958 20.2957 15.1958 19.6221 15.8691L19.0364 16.4548ZM19.8652 17.2836L20.4509 16.6979C20.5589 16.5899 20.7008 16.5356 20.843 16.5356C20.9856 16.5356 21.1286 16.5903 21.2378 16.6995C21.4543 16.916 21.4543 17.2683 21.2378 17.4848L20.6521 18.0705C20.4356 18.287 20.0833 18.287 19.8668 18.0705L19.8652 18.0689C19.6487 17.8524 19.6487 17.5001 19.8652 17.2836Z" fill="white"/>
<path d="M31.6814 15.2132C32.4956 14.1171 32.9357 12.7943 32.9357 11.4043C32.9357 9.69368 32.2694 8.08533 31.0598 6.87546C29.8502 5.66605 28.242 5 26.5314 5C25.1411 5 23.8187 5.44014 22.7225 6.25427L22.2426 5.77431C22.0139 5.54543 21.6429 5.54543 21.414 5.77431C21.1851 6.00296 21.1851 6.37398 21.414 6.60286L21.848 7.03682C20.832 8.12515 20.2312 9.52042 20.1396 11.0063L9.00245 25.2583C8.82026 25.4916 8.84063 25.8241 9.04983 26.0336L10.0617 27.0454L7.8926 29.2146C6.77658 30.3306 6.77017 32.142 7.87315 33.266C7.8759 33.269 7.87887 33.2719 7.88185 33.2749L7.89238 33.2854C7.89535 33.2884 7.89833 33.2914 7.9013 33.2941C9.02511 34.3974 10.8369 34.3907 11.9527 33.2749L15.3303 29.8973C15.9957 29.2319 17.0785 29.2319 17.7441 29.8973C18.4095 30.5627 18.4095 31.6455 17.7441 32.3109L16.0552 33.9998C15.8263 34.2287 15.8263 34.5995 16.0552 34.8283C16.1697 34.9428 16.3196 35 16.4695 35C16.6194 35 16.7696 34.9428 16.8838 34.8283L18.5727 33.1396C19.6951 32.0172 19.6951 30.191 18.5727 29.0685C17.4503 27.9463 15.624 27.9463 14.5018 29.0685L11.1242 32.4461C10.4604 33.1099 9.38148 33.1117 8.71566 32.4514C8.0558 31.7854 8.05763 30.7069 8.72116 30.0431L10.8903 27.874L11.9548 28.9383C12.1683 29.1518 12.5023 29.1587 12.7373 28.9797L26.9312 17.7959C28.4164 17.7039 29.811 17.1033 30.8989 16.0877L31.4542 16.6432C31.5686 16.7577 31.7187 16.8149 31.8687 16.8149C32.0186 16.8149 32.1685 16.7574 32.2829 16.6432C32.5118 16.4143 32.5118 16.0433 32.2829 15.8144L31.6814 15.2132ZM10.2451 25.5714L11.3222 24.1929L13.7833 26.6541L12.4142 27.7403L10.2451 25.5714ZM14.7158 25.929L12.0493 23.2627L20.7926 12.0741L25.8635 17.1449L14.7158 25.929ZM26.9926 16.6167L21.319 10.9431C21.4197 9.7937 21.8945 8.71727 22.677 7.86583L24.0624 9.25148C24.1769 9.36592 24.3268 9.42291 24.4767 9.42291C24.6268 9.42291 24.7768 9.36592 24.8912 9.25148C25.1199 9.0226 25.1199 8.65158 24.8912 8.4227L23.5635 7.09496C24.4298 6.49574 25.4556 6.17188 26.5314 6.17188C27.9289 6.17188 29.2429 6.71593 30.231 7.70424C31.2196 8.69255 31.7638 10.0066 31.7638 11.4043C31.7638 12.4801 31.4402 13.5057 30.8408 14.3723L28.2713 11.8028C28.0424 11.5739 27.6714 11.5739 27.4425 11.8028C27.2139 12.0317 27.2137 12.4027 27.4425 12.6314L30.0699 15.2587C29.2184 16.0413 28.142 16.516 26.9926 16.6167Z" fill="white"/>
<path d="M32.0998 27.7849V21.6825C32.0998 21.493 32.0083 21.3151 31.854 21.2053C31.6997 21.0952 31.5018 21.0666 31.3226 21.1286L25.6657 23.0833C25.4298 23.165 25.2714 23.3872 25.2714 23.6371V28.3702C25.2496 28.3642 25.2281 28.3581 25.2059 28.3528C24.7218 28.2368 24.1631 28.2809 23.6328 28.4773C22.4374 28.9195 21.7624 29.9719 22.0956 30.8732C22.3328 31.5139 23.0061 31.8806 23.8049 31.8806C24.1302 31.8806 24.4762 31.8197 24.8223 31.6917C25.3524 31.4956 25.8054 31.1655 26.0976 30.7625C26.3309 30.4404 26.4487 30.0863 26.443 29.7449C26.443 29.743 26.4432 29.7414 26.4432 29.7396V24.0546L30.9282 22.5049V26.4288C30.9067 26.4231 30.8852 26.4169 30.8634 26.4117C30.3791 26.2956 29.8204 26.3398 29.2901 26.5362C28.76 26.7323 28.307 27.0624 28.0148 27.4654C27.6765 27.9326 27.581 28.467 27.7529 28.9321C27.99 29.5725 28.6634 29.9394 29.4622 29.9394C29.7874 29.9394 30.1335 29.8785 30.4796 29.7506C31.0097 29.5544 31.4626 29.2244 31.7549 28.8213C31.9909 28.4954 32.1083 28.1367 32.0996 27.7918C32.0996 27.7895 32.0998 27.7872 32.0998 27.7849ZM25.1487 30.0744C24.9933 30.2889 24.7262 30.4777 24.4156 30.5926C23.7946 30.8222 23.2696 30.6689 23.1947 30.4665C23.1199 30.2642 23.4186 29.806 24.0395 29.5762C24.2446 29.5002 24.4566 29.4613 24.6511 29.4613C24.7509 29.4613 24.8461 29.4716 24.9333 29.4924C25.1045 29.5334 25.227 29.6119 25.2604 29.7023C25.2938 29.7929 25.2519 29.9321 25.1487 30.0744ZM30.806 28.1333C30.6506 28.3478 30.3835 28.5366 30.0729 28.6515C29.4519 28.8813 28.9268 28.7277 28.852 28.5254C28.8186 28.4347 28.8602 28.2958 28.9637 28.153C29.1191 27.9388 29.3862 27.7499 29.6968 27.635C29.9019 27.559 30.1138 27.5199 30.3084 27.5199C30.4082 27.5199 30.5032 27.5302 30.5906 27.551C30.7618 27.5922 30.884 27.6705 30.9177 27.7611C30.9511 27.8515 30.9092 27.9907 30.806 28.1333Z" fill="white"/>
<path d="M7.75507 13.4979C9.14552 13.4979 10.2769 14.6293 10.2769 16.0197C10.2769 16.3434 10.5392 16.6057 10.8628 16.6057C11.1865 16.6057 11.4488 16.3434 11.4488 16.0197C11.4488 14.6293 12.5801 13.4979 13.9708 13.4979C14.2944 13.4979 14.5567 13.2356 14.5567 12.912C14.5567 12.5883 14.2944 12.326 13.9708 12.326C12.5801 12.326 11.4488 11.1947 11.4488 9.804C11.4488 9.48059 11.1865 9.21806 10.8628 9.21806C10.5392 9.21806 10.2769 9.48059 10.2769 9.804C10.2769 11.1947 9.14552 12.326 7.75507 12.326C7.43143 12.326 7.16913 12.5883 7.16913 12.912C7.16913 13.2356 7.43143 13.4979 7.75507 13.4979ZM10.8628 11.7985C11.1501 12.2446 11.5305 12.625 11.9763 12.912C11.5305 13.199 11.1501 13.5794 10.8628 14.0253C10.5758 13.5794 10.1954 13.199 9.74954 12.912C10.1954 12.6247 10.5758 12.2446 10.8628 11.7985Z" fill="white"/>
<path d="M26.7156 10.3103C26.6197 10.0803 26.3817 9.93218 26.1327 9.95003C25.8894 9.96766 25.6786 10.1391 25.6113 10.3735C25.5442 10.6078 25.6337 10.8692 25.833 11.0109C26.0306 11.1512 26.2975 11.1551 26.4993 11.0217C26.7294 10.8697 26.8216 10.5646 26.7156 10.3103Z" fill="white"/>
<path d="M16.044 9.42314H16.6073V9.98619C16.6073 10.3098 16.8696 10.5721 17.1932 10.5721C17.5169 10.5721 17.7792 10.3098 17.7792 9.98619V9.42314H18.3422C18.6658 9.42314 18.9281 9.16084 18.9281 8.8372C18.9281 8.51357 18.6658 8.25127 18.3422 8.25127H17.7792V7.68822C17.7792 7.36458 17.5169 7.10228 17.1932 7.10228C16.8696 7.10228 16.6073 7.36458 16.6073 7.68822V8.25127H16.044C15.7206 8.25127 15.4581 8.51357 15.4581 8.8372C15.4581 9.16084 15.7206 9.42314 16.044 9.42314Z" fill="white"/>
</svg>
