<svg width="40" height="40" viewBox="0 0 40 40" fill="none" xmlns="http://www.w3.org/2000/svg">
<rect width="40" height="40" rx="5" fill="#7F20F8"/>
<path d="M8.83688 12.6739C9.88208 12.6739 10.7324 11.8235 10.7324 10.7783C10.7324 9.73315 9.88208 8.88278 8.83688 8.88278C7.79169 8.88278 6.94138 9.73315 6.94138 10.7783C6.94138 11.8235 7.79169 12.6739 8.83688 12.6739ZM8.83688 9.76175C9.39745 9.76175 9.85348 10.2178 9.85348 10.7784C9.85348 11.3389 9.39745 11.795 8.83688 11.795C8.27632 11.795 7.82028 11.339 7.82028 10.7784C7.82028 10.2178 8.27632 9.76175 8.83688 9.76175Z" fill="white"/>
<path d="M8.83688 17.5273C9.88208 17.5273 10.7324 16.677 10.7324 15.6318C10.7324 14.5866 9.88208 13.7363 8.83688 13.7363C7.79169 13.7363 6.94138 14.5867 6.94138 15.6319C6.94138 16.6771 7.79169 17.5273 8.83688 17.5273ZM8.83688 14.6152C9.39745 14.6152 9.85348 15.0713 9.85348 15.6319C9.85348 16.1924 9.39745 16.6485 8.83688 16.6485C8.27632 16.6485 7.82028 16.1925 7.82028 15.6319C7.82028 15.0713 8.27632 14.6152 8.83688 14.6152Z" fill="white"/>
<path d="M33.623 6.94139H32.0879V5.92479C32.0879 5.41484 31.673 5 31.1631 5H8.83689C8.32701 5 7.91211 5.41484 7.91211 5.92479V6.94139H6.37695C5.6177 6.94139 5 7.55908 5 8.31834V9.89937C5 10.1421 5.19676 10.3388 5.43945 10.3388C5.68215 10.3388 5.87891 10.1421 5.87891 9.89937V8.31834C5.87891 8.04371 6.10232 7.82029 6.37695 7.82029H11.2969C11.5715 7.82029 11.7949 8.04371 11.7949 8.31834V12.7656H11.749C11.5063 12.7656 11.3096 12.9623 11.3096 13.2051C11.3096 13.4478 11.5063 13.6445 11.749 13.6445H11.7949V18.0918C11.7949 18.3664 11.5715 18.5898 11.2969 18.5898H6.37695C6.10232 18.5898 5.87891 18.3664 5.87891 18.0918V13.6445H5.92479C6.16748 13.6445 6.36424 13.4478 6.36424 13.2051C6.36424 12.9623 6.16748 12.7656 5.92479 12.7656H5.87891V11.6572C5.87891 11.4145 5.68215 11.2178 5.43945 11.2178C5.19676 11.2178 5 11.4145 5 11.6572V18.0918C5 18.851 5.6177 19.4687 6.37695 19.4687H7.42672V20.5312H6.89551C6.38557 20.5312 5.97072 20.9461 5.97072 21.456V22.4267C5.97072 22.9367 6.38562 23.3515 6.89551 23.3515H6.94139V26.6911L5.04641 30.4812C5.04488 30.4843 5.04377 30.4875 5.0423 30.4906C5.03832 30.499 5.03451 30.5075 5.03105 30.5162C5.02889 30.5217 5.02695 30.5272 5.02508 30.5326C5.02232 30.5405 5.01969 30.5484 5.0174 30.5565C5.01547 30.5632 5.01383 30.57 5.01219 30.5767C5.01055 30.5836 5.00902 30.5904 5.00773 30.5974C5.00621 30.6055 5.00504 30.6137 5.00398 30.6218C5.00322 30.6277 5.00252 30.6336 5.00199 30.6395C5.00117 30.6487 5.00082 30.6579 5.00059 30.6671C5.00047 30.6707 5 30.6742 5 30.6777V32.1338C5 32.6437 5.41484 33.0586 5.92479 33.0586H5.97072V34.0752C5.97072 34.5852 6.38557 35 6.89551 35H24.4599C24.7026 35 24.8994 34.8033 24.8994 34.5605C24.8994 34.3178 24.7026 34.1211 24.4599 34.1211H21.4078C21.4086 34.1058 21.4102 34.0907 21.4102 34.0752V33.0586H33.1504V34.0752C33.1504 34.1005 33.1297 34.1211 33.1045 34.1211H26.2177C25.975 34.1211 25.7783 34.3178 25.7783 34.5605C25.7783 34.8033 25.975 35 26.2177 35H33.1045C33.6144 35 34.0293 34.5852 34.0293 34.0752V33.0586H34.0752C34.5852 33.0586 35 32.6437 35 32.1338V30.6777C35 30.6742 34.9995 30.6707 34.9995 30.6672C34.9992 30.658 34.9989 30.6488 34.9981 30.6396C34.9975 30.6337 34.9968 30.6278 34.9961 30.6219C34.995 30.6138 34.9938 30.6056 34.9923 30.5975C34.991 30.5905 34.9895 30.5837 34.9879 30.5768C34.9863 30.57 34.9846 30.5633 34.9827 30.5566C34.9804 30.5485 34.9777 30.5406 34.975 30.5328C34.973 30.5272 34.9711 30.5218 34.9689 30.5163C34.9655 30.5076 34.9617 30.4991 34.9577 30.4907C34.9562 30.4876 34.9551 30.4844 34.9536 30.4813L33.0586 26.6913V23.3516H33.1045C33.6144 23.3516 34.0293 22.9367 34.0293 22.4268V21.4561C34.0293 20.9461 33.6144 20.5313 33.1045 20.5313H32.5733V19.4688H33.623C34.3823 19.4688 35 18.8511 35 18.0918V8.31834C35 7.55908 34.3823 6.94139 33.623 6.94139ZM8.79102 6.94139V5.92479C8.79102 5.89947 8.81164 5.87891 8.83689 5.87891H31.163C31.1884 5.87891 31.2089 5.89953 31.2089 5.92479V6.94139H8.79102ZM29.7529 19.4688V20.5313H26.2637V19.4688H28.7031H29.707H29.7529ZM33.8495 30.2383H21.4102V29.7071C21.4102 28.9295 20.7776 28.2969 20 28.2969H12.2344C11.4568 28.2969 10.8242 28.9295 10.8242 29.7071V30.2383H6.15049L7.65242 27.2343H32.3475L33.8495 30.2383ZM20.5313 26.3555H19.4687V25.2929H20.5313V26.3555ZM20.9707 24.414H19.0293H15.1133C14.8387 24.414 14.6152 24.1906 14.6152 23.916V16.084C14.6152 15.8094 14.8387 15.586 15.1133 15.586H24.8867C25.1613 15.586 25.3848 15.8094 25.3848 16.084V23.916C25.3848 24.1906 25.1613 24.414 24.8867 24.414H20.9707ZM26.2637 18.5899V17.5273H27.3262V18.0918C27.3262 18.2674 27.3596 18.4353 27.4197 18.5899H26.2637ZM27.4198 7.82029C27.3596 7.97486 27.3262 8.14273 27.3262 8.31834V16.6484H26.2637V16.084C26.2637 15.3247 25.646 14.7071 24.8867 14.7071H15.1133C14.354 14.7071 13.7363 15.3247 13.7363 16.084V16.6484H12.6738V8.31834C12.6738 8.14273 12.6404 7.97486 12.5803 7.82029H27.4198ZM12.6738 18.0918V17.5273H13.7363V18.5899H12.5802C12.6404 18.4353 12.6738 18.2674 12.6738 18.0918ZM11.2969 19.4688H13.7363V20.5313H10.2471V19.4688H10.293H11.2969ZM8.30562 19.4688H9.36816V20.5313H8.30562V19.4688ZM6.84963 22.4268V21.4561C6.84963 21.4307 6.87025 21.4102 6.89551 21.4102H13.7363V22.4727H6.89551C6.8702 22.4727 6.84963 22.4521 6.84963 22.4268ZM13.7363 23.3516V23.916C13.7363 24.6753 14.354 25.2929 15.1133 25.2929H18.5898V26.3555H7.82029V23.3516H13.7363ZM5.87891 32.1338V31.1172H10.8242V32.1797H5.92479C5.89953 32.1797 5.87891 32.1591 5.87891 32.1338ZM6.84963 34.0752V33.0586H10.8242V34.0752C10.8242 34.0907 10.8258 34.1058 10.8266 34.1211H6.89551C6.8702 34.1211 6.84963 34.1005 6.84963 34.0752ZM15.5859 34.1211V33.0586H16.6484V34.1211H15.5859ZM17.0879 32.1797H15.1465H14.6445C14.6284 32.1797 14.6152 32.1665 14.6152 32.1504V31.1465C14.6152 31.1304 14.6284 31.1172 14.6445 31.1172H17.5899C17.606 31.1172 17.6192 31.1304 17.6192 31.1465V32.1504C17.6192 32.1665 17.606 32.1797 17.5899 32.1797H17.0879ZM17.5273 34.1211V33.0586H17.5899C18.0907 33.0586 18.4981 32.6512 18.4981 32.1504V31.1465C18.4981 30.6457 18.0907 30.2383 17.5899 30.2383H14.6445C14.1437 30.2383 13.7363 30.6457 13.7363 31.1465V32.1504C13.7363 32.6512 14.1437 33.0586 14.6445 33.0586H14.707V34.1211H11.749C11.7237 34.1211 11.7031 34.1005 11.7031 34.0752V29.7071C11.7031 29.4141 11.9414 29.1758 12.2344 29.1758H20C20.2929 29.1758 20.5313 29.4141 20.5313 29.7071V34.0752C20.5313 34.1005 20.5106 34.1211 20.4853 34.1211H17.5273ZM34.1211 32.1338C34.1211 32.1591 34.1005 32.1797 34.0752 32.1797H21.4102V31.1172H34.1211V32.1338ZM32.1797 26.3555H21.4102V25.2929H24.8867C25.646 25.2929 26.2637 24.6753 26.2637 23.916V23.3516H32.1797V26.3555ZM33.1504 21.4561V22.4268C33.1504 22.4521 33.1297 22.4727 33.1045 22.4727H26.2637V21.4101H33.1045C33.1297 21.4101 33.1504 21.4307 33.1504 21.4561ZM31.6943 20.5312H30.6318V19.4687H31.6943V20.5312ZM33.623 18.5899H32.1338H30.1924H29.707H28.7031C28.4285 18.5899 28.2051 18.3665 28.2051 18.0918V13.6446H28.251C28.4937 13.6446 28.6904 13.4479 28.6904 13.2051C28.6904 12.9624 28.4937 12.7657 28.251 12.7657H28.2051V8.3184C28.2051 8.04377 28.4285 7.82035 28.7031 7.82035H33.623C33.8977 7.82035 34.1211 8.04377 34.1211 8.3184V12.7657H34.0752C33.8325 12.7657 33.6358 12.9624 33.6358 13.2051C33.6358 13.4479 33.8325 13.6446 34.0752 13.6446H34.1211V18.0918C34.1211 18.3664 33.8977 18.5899 33.623 18.5899Z" fill="white"/>
<path d="M31.1631 8.88281C30.1179 8.88281 29.2676 9.73318 29.2676 10.7784C29.2676 11.8236 30.1179 12.6739 31.1631 12.6739C32.2083 12.6739 33.0586 11.8236 33.0586 10.7784C33.0586 9.73318 32.2082 8.88281 31.1631 8.88281ZM31.1631 11.7949C30.6025 11.7949 30.1465 11.3389 30.1465 10.7783C30.1465 10.2178 30.6025 9.76166 31.1631 9.76166C31.7237 9.76166 32.1797 10.2177 32.1797 10.7783C32.1797 11.3389 31.7236 11.7949 31.1631 11.7949Z" fill="white"/>
<path d="M31.1631 13.7363C30.1179 13.7363 29.2676 14.5867 29.2676 15.6319C29.2676 16.6771 30.1179 17.5274 31.1631 17.5274C32.2083 17.5274 33.0586 16.6771 33.0586 15.6319C33.0586 14.5867 32.2082 13.7363 31.1631 13.7363ZM31.1631 16.6484C30.6025 16.6484 30.1465 16.1924 30.1465 15.6318C30.1465 15.0713 30.6025 14.6152 31.1631 14.6152C31.7237 14.6152 32.1797 15.0712 32.1797 15.6318C32.1797 16.1924 31.7236 16.6484 31.1631 16.6484Z" fill="white"/>
<path d="M23.4141 16.6484H16.5859C16.0851 16.6484 15.6777 17.0558 15.6777 17.5566V22.4434C15.6777 22.9442 16.0851 23.3516 16.5859 23.3516H23.414C23.9148 23.3516 24.3222 22.9442 24.3222 22.4434V17.5566C24.3223 17.0558 23.9148 16.6484 23.4141 16.6484ZM23.4434 22.4434C23.4434 22.4595 23.4303 22.4727 23.4141 22.4727H16.5859C16.5698 22.4727 16.5566 22.4595 16.5566 22.4434V17.5566C16.5566 17.5405 16.5698 17.5273 16.5859 17.5273H23.414C23.4302 17.5273 23.4433 17.5405 23.4433 17.5566V22.4434H23.4434Z" fill="white"/>
<path d="M10.293 25.293H11.2637C11.5064 25.293 11.7031 25.0963 11.7031 24.8535C11.7031 24.6107 11.5064 24.414 11.2637 24.414H10.293C10.0503 24.414 9.85352 24.6107 9.85352 24.8535C9.85352 25.0963 10.0503 25.293 10.293 25.293Z" fill="white"/>
<path d="M28.7363 25.293H29.707C29.9497 25.293 30.1464 25.0963 30.1464 24.8535C30.1464 24.6107 29.9497 24.414 29.707 24.414H28.7363C28.4936 24.414 28.2969 24.6107 28.2969 24.8535C28.2969 25.0963 28.4936 25.293 28.7363 25.293Z" fill="white"/>
<path d="M24.8535 29.1758H25.8242C26.0669 29.1758 26.2637 28.9791 26.2637 28.7363C26.2637 28.4936 26.0669 28.2969 25.8242 28.2969H24.8535C24.6109 28.2969 24.4141 28.4936 24.4141 28.7363C24.414 28.979 24.6108 29.1758 24.8535 29.1758Z" fill="white"/>
<path d="M28.7363 29.1758H29.707C29.9497 29.1758 30.1464 28.9791 30.1464 28.7363C30.1464 28.4936 29.9497 28.2969 29.707 28.2969H28.7363C28.4936 28.2969 28.2969 28.4936 28.2969 28.7363C28.2969 28.979 28.4936 29.1758 28.7363 29.1758Z" fill="white"/>
</svg>
