<svg width="30" height="30" viewBox="0 0 30 30" fill="none" xmlns="http://www.w3.org/2000/svg">
<g clip-path="url(#clip0)">
<path d="M27.9681 23.3933C28.2242 23.1769 28.5111 22.889 28.7775 22.5201C29.4186 21.6317 30.0726 20.0789 29.5473 17.726C29.0278 15.3996 27.8802 14.2006 27.0089 13.6043C26.4934 13.2515 26.0143 13.0612 25.6675 12.9593C25.6536 12.6045 25.6065 12.1076 25.4702 11.5984C25.1646 10.457 24.5199 9.69904 23.6283 9.41254C23.6087 8.80657 23.4744 8.26418 23.3644 7.91469C23.2489 7.54762 22.819 6.33187 22.1388 6.09786C21.4581 5.86355 20.3716 6.55759 20.0546 6.77575C20.0478 6.78046 20.0403 6.78588 20.0334 6.79071C19.6622 5.95139 19.1397 5.38642 18.4745 5.10796C17.7496 4.80465 16.8977 4.86322 15.9378 5.28047C15.8 4.98538 15.606 4.7096 15.3336 4.47267C14.9705 3.26866 14.4304 1.9587 13.6851 0.475396C13.5284 0.128763 13.1517 -0.0627582 12.7769 0.018403C12.4061 0.0986703 12.1436 0.423076 12.139 0.79867C12.0376 2.29032 12.0709 3.35298 12.2475 4.20243C11.9284 5.10825 11.9892 5.99519 12.429 6.84148C12.4471 6.87634 12.4691 6.90762 12.4926 6.93724C12.4915 6.9429 12.4904 6.94856 12.4892 6.95422C12.3845 6.94987 12.2797 6.95047 12.1754 6.95643C12.1468 6.89422 12.1075 6.83564 12.0563 6.78433C11.0507 5.77691 9.43253 5.14466 8.72645 5.48391C8.08217 5.7933 7.79852 7.04009 7.72696 7.41479C7.60998 8.02714 7.48723 9.20725 7.97884 10.2312C8.06006 10.4003 8.11232 10.4767 8.18282 10.5738C8.19479 10.5903 8.20874 10.6098 8.22399 10.6315C8.07764 10.7508 7.92301 10.8588 7.76027 10.9529C7.39605 11.1632 7.20126 11.5531 7.25185 11.9705C7.28677 12.2585 7.43193 12.5058 7.65122 12.6701C7.57923 12.8249 7.5641 12.8981 7.51005 13.0478C7.05687 14.2941 6.7936 15.8721 6.7091 16.4329C5.24064 17.9139 4.73168 19.936 5.38252 21.7585C5.89571 23.1953 6.89175 24.3013 8.34299 25.0457C9.28946 25.5312 10.6022 25.7531 11.6138 25.8009C11.2636 26.8793 11.0418 28.1572 10.8683 29.3155C10.8195 29.641 11.0438 29.9444 11.3693 29.9931C11.3992 29.9976 11.429 29.9998 11.4583 29.9998C11.7484 29.9998 12.0026 29.7877 12.0469 29.4921C12.2074 28.4209 12.4095 27.2477 12.7134 26.2753C12.9717 26.6811 13.3488 26.9359 13.7831 26.9948C13.9125 27.0123 14.082 27.0228 14.2613 27.0339C14.4214 27.0439 14.6876 27.0603 14.7625 27.0794C16.035 27.5919 17.4184 28.0048 19.5114 28.6296L19.9971 28.7746C20.0313 28.7848 20.0657 28.7896 20.0996 28.7896C20.2536 28.7896 20.3958 28.6894 20.4421 28.5343C20.4986 28.3451 20.391 28.146 20.2019 28.0894L19.716 27.9443C18.2107 27.495 17.076 27.1563 16.0921 26.8131L16.8247 24.5233C16.8262 24.5186 16.8272 24.5139 16.8284 24.5093C17.8595 24.7152 19.1198 25.0931 20.4444 25.4904L20.9347 25.6373C21.1242 25.6939 21.3231 25.5862 21.3797 25.3971C21.4362 25.2079 21.3286 25.0087 21.1395 24.9522L20.6499 24.8055C19.2388 24.3822 17.8995 23.9805 16.8023 23.7759C16.7996 23.295 16.7836 22.8739 16.687 22.5251C16.5359 21.9789 16.1934 21.6744 15.6692 21.6204C15.2904 21.5813 15.002 21.6547 14.7877 21.8446C14.4971 22.1023 14.4126 22.5215 14.388 22.9639C14.3612 22.9646 14.3288 22.9647 14.2897 22.9638C13.3924 22.9422 12.6311 23.624 12.4347 24.6038C12.4331 24.604 12.4316 24.6038 12.43 24.6039C11.5924 24.6768 9.89501 24.5023 8.88699 23.9853C7.71426 23.3838 6.91284 22.4997 6.50495 21.3576C5.99373 19.9263 6.44345 18.3148 7.67857 17.1521C7.77826 17.0583 7.84262 16.9328 7.86079 16.7971C7.86342 16.7777 8.12585 14.842 8.63022 13.4551C8.69761 13.2746 8.68325 13.2605 8.7858 13.0631C10.0992 13.4242 11.0052 13.6146 11.4839 13.6299C11.5296 13.6313 11.5749 13.6321 11.6203 13.632C12.9832 13.632 14.2293 12.9794 14.9739 11.8683C14.9877 11.8476 15.0004 11.8263 15.0137 11.8054C16.2109 11.6314 17.3633 11.0165 17.324 10.1462C17.3124 10.0121 17.3039 9.87763 17.2928 9.7457C17.7318 9.75464 18.1674 9.81584 18.5891 9.92936C18.9018 10.0136 19.2249 9.83235 19.316 9.52135C19.3337 9.46068 19.3494 9.41075 19.3654 9.36439C19.7583 8.22235 21.2316 7.35055 21.7423 7.25015C22.0829 7.6435 22.7078 9.23728 22.3148 10.3793C22.1735 10.7901 21.9768 11.1256 21.7301 11.3766C21.5316 11.5787 21.5027 11.8927 21.6612 12.1275C22.2619 13.018 22.58 14.0587 22.581 15.1376L22.5172 18.5976C22.5172 18.6013 22.5171 18.605 22.5171 18.6086C22.5171 20.1602 22.3539 21.2846 21.9713 22.3686C21.8874 22.6065 21.9623 22.8715 22.1584 23.0301C23.7938 24.3538 25.1315 26.6734 25.925 29.5617C25.9977 29.8262 26.2376 29.9998 26.4993 29.9998C26.5515 29.9998 26.6047 29.9929 26.6575 29.9784C26.7652 29.9487 26.8573 29.8909 26.9293 29.8157C27.4045 29.4837 29.2071 28.0941 29.2071 26.1221C29.2072 24.7865 28.5364 23.9025 27.9681 23.3933ZM13.1171 24.8537C13.2113 24.1594 13.6959 23.6633 14.2729 23.6788C14.4657 23.6834 14.8244 23.6918 15.0232 23.4267C15.0684 23.3665 15.0934 23.2935 15.0947 23.2183C15.1027 22.7534 15.1591 22.4713 15.2623 22.3798C15.3175 22.3309 15.4299 22.3148 15.596 22.3319C16.0233 22.3759 16.0879 22.7626 16.0879 24.0692C16.0879 24.0705 16.0878 24.0756 16.0878 24.0771C16.0878 24.1526 16.1125 24.2225 16.1531 24.2808C16.1498 24.2889 16.1465 24.297 16.1438 24.3055L15.4197 26.5686C15.2876 26.5184 15.1573 26.4676 15.0286 26.4157C14.8994 26.3618 14.7075 26.3451 14.3057 26.3202C14.1471 26.3104 13.983 26.3002 13.8795 26.2862C13.6456 26.2545 13.4368 26.0997 13.2917 25.8505C13.1297 25.5724 13.0677 25.2184 13.1171 24.8537ZM16.5645 9.65405L15.4059 9.3126C15.1896 8.47954 14.6593 7.78711 13.9044 7.35818C13.6961 7.23978 13.4785 7.14807 13.2562 7.08175C13.2698 7.07382 13.2832 7.06566 13.296 7.0569L15.7464 7.87685C15.7731 7.88579 15.8001 7.89026 15.827 7.89276C16.2339 8.36537 16.4772 8.94648 16.5645 9.65405ZM14.3775 5.22463C14.4043 5.25282 14.433 5.27928 14.4645 5.30222C14.8638 5.59337 15.0442 6.06538 15.0632 6.89422L13.5226 6.37871C13.5128 6.34933 13.5014 6.32031 13.4867 6.29194C13.2406 5.81844 13.1777 5.35496 13.2953 4.85863L14.3775 5.22463ZM14.0472 4.35802L13.457 4.15846C13.4539 4.14129 13.4508 4.12407 13.4473 4.10703C13.3235 3.59426 13.2796 2.98519 13.2748 2.38888C13.5844 3.08507 13.8405 3.73823 14.0472 4.35802ZM9.25841 6.5775C9.54307 6.59537 10.2378 6.83099 10.8661 7.32046C10.4808 7.52396 10.1332 7.80862 9.85347 8.16979C9.65849 8.42156 9.50326 8.69823 9.39213 8.99213C9.29828 9.24032 9.18112 9.47546 9.04436 9.69517C8.5425 8.61922 8.97178 6.9951 9.25841 6.5775ZM14.3798 11.4703C13.7486 12.4123 12.6736 12.953 11.5067 12.9152C11.0994 12.9224 9.56387 12.5585 8.18872 12.1512C8.00166 12.0969 7.96788 11.9334 7.96192 11.8846C7.95602 11.8359 7.94982 11.6694 8.11804 11.5722C8.47904 11.3638 8.80767 11.1004 9.09645 10.7941C9.15705 10.7478 9.20651 10.692 9.24399 10.63C9.58824 10.2269 9.86682 9.75869 10.061 9.24509C10.147 9.01769 10.2674 8.80323 10.4188 8.60772C10.719 8.22015 11.1198 7.9455 11.5601 7.79611C11.7044 7.75016 11.854 7.71453 11.9746 7.69433C12.5035 7.61197 13.0602 7.70094 13.5511 7.98C14.1523 8.32163 14.5704 8.87808 14.7282 9.54685C14.884 10.2064 14.757 10.9075 14.3798 11.4703ZM15.3787 11.0023C15.4659 10.7059 15.5089 10.3976 15.5072 10.088L16.5275 10.3886C16.3566 10.6122 15.9338 10.8545 15.3787 11.0023ZM18.3671 8.65891C17.9771 8.58799 17.5803 8.55212 17.182 8.55212C17.1409 8.55295 17.0713 8.55188 17.0311 8.55689C16.8529 8.0782 16.5919 7.65571 16.2487 7.29305C16.2523 7.2682 16.255 7.24311 16.2555 7.21731C16.2601 6.97484 16.2567 6.71724 16.2327 6.45594C16.9631 6.10173 17.5619 6.01795 18.0145 6.20733C18.4636 6.39533 18.8211 6.86979 19.0787 7.61817C18.81 7.91076 18.5534 8.25924 18.3671 8.65891ZM26.8144 28.375C26.1776 26.3977 25.0793 24.0261 23.2249 22.373C23.5622 21.2768 23.7087 20.1251 23.709 18.6144L23.7728 15.1539C23.7728 15.1502 23.7729 15.1466 23.7729 15.1429C23.7729 13.9762 23.469 12.8454 22.8903 11.8459C23.1168 11.5359 23.3016 11.1747 23.4419 10.7671C23.4558 10.7266 23.4686 10.6859 23.4809 10.6451C24.5897 11.2635 24.4786 13.3778 24.4772 13.401C24.4568 13.7224 24.6906 14.0012 25.0111 14.0315C25.1154 14.0431 27.5739 14.3565 28.3842 17.9856C29.1864 21.5785 26.7762 22.7966 26.6766 22.8451C26.4689 22.9427 26.3342 23.1503 26.3328 23.3798C26.3313 23.6093 26.4602 23.8184 26.6667 23.9187C26.7218 23.9463 28.0155 24.6118 28.0155 26.1221C28.0154 27.0717 27.3455 27.8817 26.8144 28.375Z" fill="black"/>
<path d="M9.76913 17.0558C9.76913 17.4619 10.0983 17.791 10.5044 17.791C10.9105 17.791 11.2397 17.4619 11.2397 17.0558C11.2397 16.6497 10.9105 16.3205 10.5044 16.3205C10.0984 16.3205 9.76913 16.6497 9.76913 17.0558Z" fill="black"/>
<path d="M17.9632 16.3204C17.5571 16.3204 17.228 16.6496 17.228 17.0557C17.228 17.4618 17.5571 17.791 17.9632 17.791C18.3694 17.791 18.6985 17.4618 18.6985 17.0557C18.6985 16.6497 18.3694 16.3204 17.9632 16.3204Z" fill="black"/>
<path d="M12.0027 8.17079C11.903 8.19862 11.0133 8.47422 10.4775 9.56095C10.3319 9.85616 10.4532 10.2134 10.7483 10.359C10.8331 10.4008 10.9229 10.4206 11.0114 10.4206C11.2312 10.4206 11.4426 10.2986 11.5463 10.0881C11.8474 9.47747 12.3138 9.32206 12.3335 9.31574L12.3234 9.31872C13.1231 9.0952 12.8025 7.94733 12.0027 8.17079Z" fill="black"/>
<path d="M14.9546 18.3973C14.9536 18.3973 14.9527 18.3973 14.9516 18.3973L12.9459 18.4028C12.5732 18.4038 12.2361 18.5957 12.0442 18.9161C11.8545 19.2327 11.8442 19.6153 12.0166 19.9395C12.4123 20.6837 13.1529 21.1454 13.9506 21.1453H13.9561C14.7559 21.1432 15.4966 20.6772 15.8892 19.9291C16.0598 19.6039 16.0474 19.2214 15.8561 18.9058C15.663 18.5873 15.3261 18.3973 14.9546 18.3973ZM15.256 19.5968C14.987 20.1095 14.4882 20.4288 13.9542 20.4302C13.953 20.4302 13.9518 20.4302 13.9506 20.4302C13.418 20.4302 12.9192 20.1138 12.648 19.6038C12.5706 19.4583 12.629 19.3313 12.6576 19.2835C12.6873 19.2339 12.7752 19.1183 12.9478 19.1178L14.9536 19.1124H14.9546C15.1266 19.1124 15.2147 19.2271 15.2446 19.2765C15.2735 19.3242 15.3325 19.4509 15.256 19.5968Z" fill="black"/>
<path d="M27.6217 2.16225L28.1112 3.53865C28.1322 3.59759 28.1737 3.64424 28.2261 3.66784L29.4489 4.21881C29.6216 4.29663 29.6216 4.57188 29.4489 4.64976L28.2261 5.20073C28.1737 5.22432 28.1322 5.27098 28.1112 5.32998L27.6217 6.70632C27.5526 6.90076 27.308 6.90076 27.2388 6.70632L26.7494 5.32998C26.7284 5.27104 26.6869 5.22432 26.6345 5.20073L25.4117 4.64976C25.2389 4.57194 25.2389 4.29669 25.4117 4.21881L26.6345 3.66784C26.6869 3.64424 26.7284 3.59753 26.7494 3.53865L27.2388 2.16225C27.308 1.96781 27.5525 1.96781 27.6217 2.16225Z" fill="black"/>
<path d="M4.38205 2.32146L4.74513 3.34241C4.76068 3.38615 4.79143 3.42077 4.83028 3.43823L5.73736 3.84689C5.86554 3.90464 5.86554 4.10879 5.73736 4.16653L4.83028 4.5752C4.79143 4.59272 4.76068 4.62734 4.74513 4.67102L4.38205 5.69197C4.33074 5.83624 4.14935 5.83624 4.09805 5.69197L3.73497 4.67102C3.71941 4.62728 3.68867 4.59266 3.64981 4.5752L2.74274 4.16653C2.61456 4.10879 2.61456 3.90464 2.74274 3.84689L3.64981 3.43823C3.68867 3.42071 3.71941 3.38609 3.73497 3.34241L4.09805 2.32146C4.14929 2.17719 4.33074 2.17719 4.38205 2.32146Z" fill="black"/>
<path d="M23.6495 0.658558C23.6495 0.970093 23.397 1.22263 23.0854 1.22263C22.7739 1.22263 22.5214 0.970093 22.5214 0.658558C22.5214 0.347023 22.7739 0.0944824 23.0854 0.0944824C23.397 0.094542 23.6495 0.347083 23.6495 0.658558Z" fill="black"/>
<path d="M0.987419 9.39824C1.3885 9.39824 1.71364 9.0731 1.71364 8.67202C1.71364 8.27094 1.3885 7.9458 0.987419 7.9458C0.586339 7.9458 0.2612 8.27094 0.2612 8.67202C0.2612 9.0731 0.586339 9.39824 0.987419 9.39824Z" fill="black"/>
</g>
<defs>
<clipPath id="clip0">
<rect width="30" height="30" fill="white"/>
</clipPath>
</defs>
</svg>
