<svg width="25" height="25" viewBox="0 0 25 25" fill="none" xmlns="http://www.w3.org/2000/svg">
<path d="M12.5 0.00100708C5.59716 0.00100708 0 5.59707 0 12.5005C0 19.4038 5.59661 24.9999 12.5 24.9999C19.4039 24.9999 25 19.4038 25 12.5005C25 5.59707 19.4039 0.00100708 12.5 0.00100708ZM12.5 3.73849C14.7841 3.73849 16.635 5.58993 16.635 7.87294C16.635 10.1565 14.7841 12.0074 12.5 12.0074C10.217 12.0074 8.36609 10.1565 8.36609 7.87294C8.36609 5.58993 10.217 3.73849 12.5 3.73849ZM12.4973 21.7319C10.2192 21.7319 8.13274 20.9022 6.52343 19.529C6.1314 19.1947 5.90519 18.7043 5.90519 18.1899C5.90519 15.8745 7.77914 14.0214 10.0951 14.0214H14.906C17.2225 14.0214 19.0893 15.8745 19.0893 18.1899C19.0893 18.7049 18.8642 19.1941 18.4716 19.5285C16.8629 20.9022 14.7759 21.7319 12.4973 21.7319Z" fill="black"/>
</svg>
