<svg width="51" height="51" viewBox="0 0 51 51" fill="none" xmlns="http://www.w3.org/2000/svg">
<circle cx="25.5" cy="25.5" r="23" fill="white" stroke="#AE5EFF" stroke-width="5"/>
<g clip-path="url(#clip0)">
<path d="M37.3643 35.9323L30.4475 29.0155C31.7873 27.3605 32.594 25.2576 32.594 22.9672C32.594 17.6587 28.2747 13.3394 22.9662 13.3394C17.6577 13.3394 13.3384 17.6587 13.3384 22.9671C13.3384 28.2756 17.6578 32.595 22.9662 32.595C25.2566 32.595 27.3596 31.7883 29.0145 30.4485L35.9313 37.3653C36.1289 37.5629 36.3884 37.6622 36.6478 37.6622C36.9073 37.6622 37.1667 37.5629 37.3644 37.3653C37.7606 36.969 37.7606 36.3285 37.3643 35.9323ZM22.9662 30.568C18.7746 30.568 15.3654 27.1588 15.3654 22.9671C15.3654 18.7755 18.7746 15.3663 22.9662 15.3663C27.1579 15.3663 30.5671 18.7755 30.5671 22.9671C30.5671 27.1588 27.1579 30.568 22.9662 30.568Z" fill="black"/>
</g>
<defs>
<clipPath id="clip0">
<rect width="24.3231" height="24.3231" fill="white" transform="translate(13.3384 13.3385)"/>
</clipPath>
</defs>
</svg>
