<svg width="40" height="40" viewBox="0 0 40 40" fill="none" xmlns="http://www.w3.org/2000/svg">
<rect width="40" height="40" rx="5" fill="#A65C06"/>
<path d="M34.2623 27.8494L29.4944 23.0815C29.2413 22.827 28.9402 22.6252 28.6086 22.4878C28.277 22.3505 27.9214 22.2803 27.5625 22.2812C27.3759 22.2813 27.1898 22.3002 27.007 22.3378C25.8484 20.784 25.2213 18.8983 25.2187 16.9601C25.2188 15.1675 24.8657 13.3924 24.1797 11.7362C23.4936 10.08 22.4881 8.5752 21.2206 7.30763C20.4709 6.55385 19.5791 5.95624 18.5969 5.54941C17.6147 5.14258 16.5616 4.93459 15.4985 4.9375C11.0364 4.9375 7.40625 8.56768 7.40625 13.0297C7.40585 14.9961 8.12182 16.8952 9.42024 18.3719L10.1244 17.7531C8.89802 16.3577 8.26244 14.54 8.35208 12.6845C8.44173 10.829 9.24956 9.08106 10.6047 7.81041C11.9599 6.53977 13.7562 5.84604 15.6136 5.87593C17.4711 5.90582 19.2441 6.65699 20.5577 7.97058C21.7382 9.1511 22.6747 10.5526 23.3135 12.095C23.9524 13.6374 24.2813 15.2906 24.2812 16.9601C24.283 17.9198 23.9995 18.8584 23.4667 19.6567C22.934 20.455 22.1759 21.0768 21.2889 21.4434C21.2259 21.4695 21.1694 21.5091 21.1233 21.5594C21.0772 21.6097 21.0426 21.6694 21.022 21.7344C21.0013 21.7994 20.9951 21.8681 21.0038 21.9358C21.0125 22.0035 21.0358 22.0684 21.0722 22.1261L21.5409 22.8701C21.6032 22.969 21.7003 23.0411 21.813 23.0722C22.8941 23.3685 23.9096 23.8659 24.8066 24.5383C24.7303 24.9082 24.7312 25.29 24.8092 25.6596L25.7264 25.4654C25.6645 25.173 25.6766 24.8699 25.7616 24.5834C25.8466 24.2969 26.0018 24.0361 26.2131 23.8248L26.2936 23.7443C26.6213 23.4166 27.0631 23.2284 27.5265 23.2191C27.9898 23.2099 28.4388 23.3803 28.7793 23.6947C28.1214 23.7384 27.502 24.0203 27.0369 24.4877L26.9565 24.5681C26.7249 24.7994 26.537 25.0704 26.4016 25.3684L27.255 25.7567C27.3438 25.561 27.4673 25.3829 27.6193 25.2311L27.6998 25.1506C28.0363 24.8142 28.4925 24.6251 28.9683 24.625C29.4441 24.6249 29.9005 24.8137 30.2371 25.15L30.6566 25.5695C29.9979 25.6127 29.3775 25.8947 28.9119 26.3627L28.8315 26.4431C28.7477 26.527 28.6693 26.6162 28.597 26.7102L29.3404 27.2815C29.3879 27.2198 29.4393 27.1612 29.4943 27.1061L29.5748 27.0256C29.9025 26.6978 30.3443 26.5096 30.8077 26.5004C31.2711 26.4911 31.7201 26.6615 32.0606 26.976C31.4027 27.0196 30.7832 27.3015 30.3182 27.7689L30.2377 27.8494C29.7253 28.3618 29.4375 29.0567 29.4375 29.7813C29.4375 30.5059 29.7253 31.2008 30.2377 31.7131L30.3181 31.7935C30.8305 32.3059 31.5254 32.5937 32.25 32.5938C32.9746 32.5938 33.6695 32.3059 34.1818 31.7936L34.2623 31.7131C34.7747 31.2007 35.0625 30.5058 35.0625 29.7812C35.0625 29.0566 34.7747 28.3617 34.2623 27.8494L34.2623 27.8494ZM25.6306 23.0814L25.5502 23.1619C25.4052 23.307 25.277 23.4679 25.1677 23.6415C24.2771 23.008 23.2871 22.5271 22.2385 22.2187L22.1473 22.0739C23.2192 21.506 24.0849 20.6147 24.6215 19.5268C24.9264 20.6638 25.4305 21.7378 26.1103 22.6989C25.9367 22.8081 25.7758 22.9364 25.6306 23.0814V23.0814ZM33.5994 31.0502L33.5189 31.1307C33.1824 31.4672 32.7259 31.6563 32.25 31.6563C31.774 31.6562 31.3176 31.4672 30.981 31.1306L30.9006 31.0502C30.5641 30.7137 30.375 30.2572 30.375 29.7813C30.375 29.3053 30.5641 28.8489 30.9006 28.5123L30.9811 28.4318C31.3176 28.0953 31.7741 27.9062 32.25 27.9063C32.726 27.9063 33.1824 28.0953 33.5189 28.4319L33.5994 28.5123H33.5994C33.9359 28.8489 34.125 29.3053 34.125 29.7813C34.125 30.2572 33.9359 30.7136 33.5994 31.0502L33.5994 31.0502Z" fill="white"/>
<path d="M11.0189 16.0502L11.625 15.4442L12.3683 16.1875L11.2935 17.2623L11.9564 17.9252L13.0312 16.8504L13.6373 17.4565L14.3002 16.7935L13.6942 16.1875L14.4375 15.4442L15.1808 16.1875L14.5748 16.7935L15.2377 17.4565L15.8437 16.8504L16.5871 17.5938L16.4498 17.731L17.1127 18.394L17.25 18.2567L17.856 18.8627L18.5189 18.1998L17.9129 17.5938L18.6562 16.8504L19.3996 17.5938L18.7935 18.1998L19.4564 18.8627L20.0625 18.2567L21.606 19.8002L22.2689 19.1373L20.7254 17.5938L21.4687 16.8504L22.5435 17.9252L23.2064 17.2623L22.1317 16.1875L22.7377 15.5815L22.0748 14.9185L21.4687 15.5246L20.7254 14.7812L21.4687 14.0379L22.0748 14.644L22.7377 13.981L22.1317 13.375L22.7377 12.769L22.0748 12.106L21.4687 12.7121L20.7254 11.9687L21.3314 11.3627L20.6685 10.6998L20.0625 11.3058L19.3192 10.5625L20.3939 9.48773L19.731 8.82477L18.6562 9.89957L17.9129 9.15625L18.5189 8.55023L17.856 7.88727L17.25 8.49332L16.5067 7.75L17.1127 7.14397L16.4498 6.48102L15.8437 7.08707L15.2377 6.48102L14.5748 7.14397L15.1808 7.75L14.4375 8.49332L13.3627 7.41852L12.6998 8.08148L13.7746 9.15625L13.0312 9.89957L11.9564 8.82477L11.2935 9.48773L12.3683 10.5625L11.625 11.3058L10.5502 10.231L9.8873 10.894L10.9621 11.9687L10.2187 12.7121L9.6127 12.106L8.9498 12.769L9.55582 13.375L8.9498 13.981L9.6127 14.644L10.2187 14.0379L10.9621 14.7812L10.356 15.3873L11.0189 16.0502ZM13.0312 15.5246L12.2879 14.7812L13.0312 14.0379L13.7746 14.7812L13.0312 15.5246ZM17.25 14.1183L16.5067 13.375L17.25 12.6317L17.9933 13.375L17.25 14.1183ZM18.6562 14.0379L19.3996 14.7812L18.6562 15.5246L17.9129 14.7812L18.6562 14.0379ZM15.8437 12.7121L15.1004 11.9687L15.8437 11.2254L16.5871 11.9687L15.8437 12.7121ZM15.1808 13.375L14.4375 14.1183L13.6942 13.375L14.4375 12.6317L15.1808 13.375ZM15.1004 14.7812L15.8437 14.0379L16.5871 14.7812L15.8437 15.5246L15.1004 14.7812ZM17.25 16.9308L16.5067 16.1875L17.25 15.4442L17.9933 16.1875L17.25 16.9308ZM20.8058 16.1875L20.0625 16.9308L19.3192 16.1875L20.0625 15.4442L20.8058 16.1875ZM20.8058 13.375L20.0625 14.1183L19.3192 13.375L20.0625 12.6317L20.8058 13.375ZM19.3996 11.9687L18.6562 12.7121L17.9129 11.9687L18.6562 11.2254L19.3996 11.9687ZM17.9933 10.5625L17.25 11.3058L16.5067 10.5625L17.25 9.81918L17.9933 10.5625ZM15.8437 8.41293L16.5871 9.15625L15.8437 9.89957L15.1004 9.15625L15.8437 8.41293ZM14.4375 9.81918L15.1808 10.5625L14.4375 11.3058L13.6942 10.5625L14.4375 9.81918ZM13.0312 11.2254L13.7746 11.9687L13.0312 12.7121L12.2879 11.9687L13.0312 11.2254ZM10.8817 13.375L11.625 12.6317L12.3683 13.375L11.625 14.1183L10.8817 13.375Z" fill="white"/>
<path d="M15.3438 23.7324C15.8171 23.4367 16.3479 23.2454 16.9009 23.1711C17.4539 23.0968 18.0164 23.1412 18.5508 23.3015L19.7594 23.6642C19.9606 24.2768 20.0629 24.9176 20.0625 25.5625H21C20.9997 23.9896 20.4718 22.4623 19.501 21.2248C18.5301 19.9873 17.1722 19.1112 15.6446 18.7365C14.117 18.3619 12.5078 18.5104 11.0746 19.1583C9.64132 19.8062 8.46675 20.916 7.73876 22.3103C7.01076 23.7046 6.77139 25.3028 7.05894 26.8491C7.34649 28.3955 8.14435 29.8008 9.32489 30.8402C10.5054 31.8796 12.0004 32.493 13.5708 32.5824C15.1411 32.6718 16.6961 32.2319 17.9869 31.3332L17.4506 30.5642C16.8672 30.9717 16.2165 31.2731 15.5284 31.4545L14.8677 30.6996C13.9859 29.6918 13.5 28.3981 13.5 27.059C13.4995 26.4033 13.6642 25.758 13.979 25.1828C14.7506 25.4713 15.4913 25.8365 16.19 26.2729L17.9392 27.3663L18.4361 26.5712L16.6869 25.4779C16.0061 25.0531 15.2883 24.6909 14.5421 24.3959C14.7784 24.1398 15.0481 23.9166 15.3438 23.7324ZM19.2553 22.5341L18.8204 22.4036C18.1582 22.205 17.4614 22.1499 16.7762 22.2419C16.0911 22.3339 15.4335 22.571 14.8472 22.9372C14.368 23.236 13.9451 23.6169 13.5982 24.0624C13.1925 23.9366 12.779 23.8302 12.3612 23.7437C13.3501 22.1624 14.7255 20.8592 16.3576 19.9568C17.5769 20.4798 18.5937 21.3842 19.2553 22.5341ZM15.1552 19.5851C13.5979 20.6016 12.3001 21.9685 11.3656 23.5763C10.952 23.523 10.5346 23.4895 10.1172 23.4756C10.4075 22.4835 10.5962 21.4645 10.6802 20.4343C12.0059 19.583 13.6098 19.2786 15.1552 19.5851ZM7.875 25.5625C7.87499 25.2146 7.90471 24.8673 7.96383 24.5245C8.24055 24.4857 8.51883 24.4562 8.79866 24.436C8.54898 25.0698 8.25438 25.6851 7.91711 26.277C7.88917 26.0399 7.87511 25.8013 7.875 25.5625ZM9.64091 21.277C9.53115 22.0231 9.36255 22.7593 9.13669 23.4788C8.83003 23.4912 8.52314 23.5139 8.2178 23.5475C8.5182 22.6947 9.00427 21.9192 9.64091 21.277ZM8.2183 27.5789C8.87124 26.587 9.40614 25.5222 9.81213 24.4062C10.1732 24.4103 10.5348 24.4304 10.8944 24.4662C10.0771 26.1721 9.67901 28.0485 9.73335 29.9392C9.05209 29.2806 8.5334 28.4725 8.2183 27.5789ZM14.1621 31.317L14.4431 31.638C14.286 31.65 14.1278 31.6561 13.9688 31.6562C12.8193 31.6576 11.6933 31.3318 10.7221 30.717C10.507 28.6108 10.9066 26.4874 11.8726 24.6035C12.2785 24.6771 12.6804 24.771 13.0768 24.8849C12.7381 25.5595 12.5619 26.3041 12.5625 27.059C12.5624 28.6252 13.1308 30.1382 14.1621 31.317Z" fill="white"/>
<path d="M25.2188 26.5C24.6432 26.4996 24.0777 26.6515 23.5799 26.9404C23.0811 26.652 22.5152 26.5001 21.939 26.4998C21.3629 26.4995 20.7968 26.651 20.2977 26.9389C19.7987 27.2268 19.3842 27.641 19.0961 28.14C18.8079 28.6389 18.6562 29.2049 18.6562 29.781C18.6561 30.3572 18.8078 30.9232 19.096 31.4221C19.3841 31.9211 19.7985 32.3354 20.2976 32.6233C20.7966 32.9113 21.3627 33.0627 21.9388 33.0625C22.515 33.0623 23.0809 32.9104 23.5797 32.622C24.0156 32.8735 24.5034 33.0214 25.0056 33.0542C25.5077 33.087 26.0106 33.0038 26.4755 32.8112C26.9403 32.6185 27.3546 32.3215 27.6864 31.9431C28.0181 31.5647 28.2583 31.1151 28.3884 30.629C28.5185 30.1429 28.5351 29.6334 28.4368 29.1399C28.3386 28.6464 28.1281 28.1821 27.8217 27.783C27.5153 27.3838 27.1211 27.0605 26.6698 26.838C26.2184 26.6156 25.722 26.4999 25.2188 26.5ZM27.5531 29.5777L27.4252 29.4498C27.2586 29.2832 27.0608 29.151 26.843 29.0608C26.6253 28.9706 26.3919 28.9242 26.1563 28.9242C25.9206 28.9242 25.6872 28.9706 25.4695 29.0608C25.2517 29.151 25.0539 29.2832 24.8873 29.4498C24.8077 29.5294 24.7132 29.5926 24.6092 29.6356C24.5052 29.6787 24.3938 29.7009 24.2812 29.7009C24.1687 29.7009 24.0572 29.6787 23.9532 29.6356C23.8493 29.5925 23.7548 29.5294 23.6752 29.4498L23.0706 28.8452C23.2786 28.3675 23.6399 27.9727 24.0974 27.7233C24.5549 27.4739 25.0825 27.3841 25.5967 27.4682C26.111 27.5522 26.5825 27.8053 26.9368 28.1873C27.2911 28.5693 27.508 29.0586 27.5531 29.5777H27.5531ZM21.9375 27.4375C22.2244 27.4373 22.5089 27.4898 22.7768 27.5925C22.381 28.0327 22.1121 28.572 21.9985 29.1529C21.8546 29.2333 21.7226 29.3333 21.606 29.4498C21.5264 29.5294 21.432 29.5926 21.328 29.6356C21.224 29.6787 21.1125 29.7009 21 29.7009C20.8874 29.7009 20.776 29.6787 20.672 29.6356C20.568 29.5925 20.4735 29.5294 20.394 29.4498L19.7894 28.8452C19.9719 28.4272 20.2723 28.0714 20.6538 27.8214C21.0353 27.5714 21.4814 27.438 21.9375 27.4375ZM19.6031 29.9848L19.731 30.1127C20.0231 30.4047 20.407 30.5871 20.8178 30.6291C21.2287 30.6711 21.6415 30.5701 21.9866 30.3432C22.092 30.949 22.3658 31.5129 22.7769 31.9702C22.438 32.0999 22.0736 32.1491 21.7124 32.114C21.3512 32.079 21.0031 31.9606 20.6954 31.7681C20.3878 31.5757 20.129 31.3144 19.9395 31.005C19.7499 30.6955 19.6348 30.3463 19.6031 29.9848ZM25.2188 32.125C24.6327 32.1242 24.0681 31.9042 23.6361 31.5081C23.2041 31.112 22.9359 30.5686 22.8844 29.9848L23.0123 30.1127C23.1789 30.2793 23.3767 30.4115 23.5945 30.5017C23.8122 30.5919 24.0456 30.6384 24.2813 30.6384C24.5169 30.6384 24.7503 30.5919 24.968 30.5017C25.1858 30.4115 25.3836 30.2793 25.5502 30.1127C25.6298 30.0331 25.7243 29.97 25.8283 29.9269C25.9323 29.8838 26.0437 29.8617 26.1563 29.8617C26.2688 29.8617 26.3803 29.8838 26.4843 29.9269C26.5882 29.97 26.6827 30.0331 26.7623 30.1127L27.3669 30.7173C27.1844 31.1353 26.884 31.4911 26.5025 31.7411C26.121 31.9911 25.6749 32.1245 25.2188 32.125Z" fill="white"/>
</svg>
