<svg width="40" height="40" viewBox="0 0 40 40" fill="none" xmlns="http://www.w3.org/2000/svg">
<rect width="40" height="40" rx="5" fill="#4F9185"/>
<g clip-path="url(#clip0)">
<path d="M12.5002 22.9997H8.50021V23.9997H12.5002V22.9997Z" fill="white"/>
<path d="M33.9471 28.776L32.4471 25.776C32.3624 25.6066 32.1892 25.4997 31.9999 25.4997H28.9999V23.9997C28.9999 23.7236 28.776 23.4997 28.4999 23.4997H18.5001C18.224 23.4997 18.0001 23.7236 18.0001 23.9997V32.9996C18.0001 33.2757 18.224 33.4995 18.5001 33.4995H20.571C20.8418 34.5649 21.925 35.209 22.9903 34.9383C23.6972 34.7586 24.2493 34.2065 24.429 33.4995H28.0709C28.3417 34.5649 29.4248 35.209 30.4901 34.9383C31.1971 34.7586 31.7492 34.2065 31.9289 33.4995H33.4998C33.776 33.4995 33.9998 33.2757 33.9998 32.9996V28.9996C33.9998 28.922 33.9818 28.8454 33.9471 28.776ZM22.5 33.9995C21.9477 33.9995 21.5 33.5519 21.5 32.9996C21.5 32.4473 21.9477 31.9996 22.5 31.9996C23.0523 31.9996 23.5 32.4473 23.5 32.9996C23.4994 33.5516 23.0521 33.999 22.5 33.9995ZM27.9999 32.4996H24.429C24.2023 31.6188 23.4094 31.0023 22.5 30.9996C21.5906 31.0023 20.7977 31.6188 20.571 32.4996H19.0001V24.4997H27.9999V32.4996ZM30.9999 26.4997H31.6908L32.6908 28.4996H30.9999V26.4997ZM29.9999 33.9995C29.4476 33.9995 28.9999 33.5519 28.9999 32.9996C28.9999 32.4473 29.4476 31.9996 29.9999 31.9996C30.5522 31.9996 30.9999 32.4473 30.9999 32.9996C30.9993 33.5516 30.5519 33.999 29.9999 33.9995ZM32.9998 32.4996H31.9289C31.7022 31.6188 30.9093 31.0023 29.9999 30.9996C29.6477 31.0016 29.3025 31.0976 28.9999 31.2778V26.4997H29.9999V28.9996C29.9999 29.2757 30.2238 29.4996 30.4999 29.4996H32.9998V32.4996Z" fill="white"/>
<path d="M15.9996 11.9999H15.0001V12.9999H15.9996V11.9999Z" fill="white"/>
<path d="M17.9996 11.9999H17.0001V12.9999H17.9996V11.9999Z" fill="white"/>
<path d="M19.9996 11.9999H19.0001V12.9999H19.9996V11.9999Z" fill="white"/>
<path d="M21.9995 11.9999H21V12.9999H21.9995V11.9999Z" fill="white"/>
<path d="M31.5433 13.3514L29.9942 11.8021C28.8426 10.6519 27.2826 10.004 25.6549 9.99992H21.7771L19.4241 6.2351C19.3327 6.08892 19.1725 6.00005 19 5.99998H17.5001C17.2238 6.00011 17 6.22417 17.0001 6.50047C17.0001 6.54122 17.0051 6.58179 17.015 6.62135L17.8596 9.99992H13.8722L12.4792 5.35643C12.4157 5.14487 12.221 5 12.0002 5H9.50021C9.22408 5 9.00021 5.22387 9.00021 5.49999V10.4999H9.0049C9.00328 10.6319 9.05428 10.7592 9.14671 10.8534L12.2717 13.9783C13.561 15.2761 15.3158 16.0039 17.1451 15.9998H17.2813L16.0389 18.7969C15.9268 19.0492 16.0405 19.3446 16.2928 19.4568C16.3075 19.4633 16.3225 19.4691 16.3377 19.4741L17.8367 19.9741C18.0467 20.0441 18.2776 19.9677 18.4046 19.7864L21.0535 15.9998H30.4449C31.3014 16.0014 31.997 15.3084 31.9986 14.4519C31.9993 14.0391 31.8355 13.643 31.5433 13.3514ZM18.7229 6.99997L20.5979 9.99992H18.8905L18.1404 6.99997H18.7229ZM10.0002 5.99998H11.6281L12.8281 9.99992H10.0002V5.99998ZM17.7991 18.9075L17.1763 18.6997L18.8196 14.9998H20.5327L17.7991 18.9075ZM30.9578 14.6571C30.8745 14.8667 30.6704 15.0031 30.4449 14.9998H21.7531L21.9023 14.7865C22.0606 14.5602 22.0054 14.2483 21.7791 14.0901C21.6951 14.0314 21.5951 13.9998 21.4926 13.9998H18.4946C18.2969 13.9998 18.1178 14.1163 18.0376 14.297L17.7254 14.9998H17.1451C15.5812 15.0033 14.0809 14.3808 12.9786 13.2714L10.7072 10.9999H25.6549C26.745 11.0046 27.8056 11.3547 28.6843 11.9999H24.9999V12.9999H29.7774L30.8375 14.0599C30.9976 14.2147 31.0455 14.4523 30.9578 14.6571Z" fill="white"/>
<path d="M16.2567 33.6321C15.9419 33.294 15.5196 33.0755 15.0618 33.0137L16.971 27.6678C17.0638 27.4074 16.9279 27.1211 16.6674 27.0284C16.6644 27.0273 16.6614 27.0262 16.6583 27.0253L15.4391 26.6188L14.4921 21.4103C14.4489 21.1725 14.2418 20.9997 14.0002 20.9997H12.0002V19.4997C12.0002 19.2236 11.7763 18.9998 11.5002 18.9998H9.50024C9.22412 18.9998 9.00024 19.2236 9.00024 19.4997V20.9997H7.00028C6.75859 20.9997 6.55154 21.1726 6.50835 21.4103L5.56137 26.6188L4.34214 27.0253C4.07995 27.1129 3.93858 27.3966 4.02627 27.6587C4.02727 27.6617 4.02833 27.6647 4.02939 27.6678L5.93861 33.0138C5.48155 33.0761 5.06006 33.2945 4.74569 33.6321C4.56476 33.86 4.29126 33.9948 4.00033 33.9995V34.9995C4.54213 34.9966 5.05806 34.7673 5.42343 34.3672C5.60436 34.1391 5.87798 34.0042 6.16904 33.9995C6.27467 33.9986 6.37948 34.0182 6.47772 34.0571C6.48191 34.0589 6.4846 34.0629 6.48885 34.0647C6.64566 34.1428 6.78803 34.247 6.90997 34.3728C7.27909 34.7695 7.79558 34.9962 8.33744 34.9995C8.87912 34.9965 9.39493 34.7671 9.76005 34.3669C10.0746 33.9561 10.6627 33.878 11.0735 34.1924C11.139 34.2426 11.1976 34.3012 11.2478 34.3667C11.6126 34.767 12.1281 34.9964 12.6697 34.9995C13.2112 34.9962 13.7274 34.7694 14.0959 34.3726C14.2168 34.2477 14.3578 34.144 14.5132 34.0659C14.5177 34.0641 14.5205 34.0598 14.5249 34.0578C14.6234 34.0184 14.7286 33.9987 14.8346 33.9996C15.125 34.0043 15.398 34.1391 15.5781 34.367C15.943 34.7671 16.4586 34.9964 17.0001 34.9996V33.9996C16.7097 33.9948 16.4368 33.86 16.2567 33.6321ZM10.0002 19.9997H11.0002V20.9997H10.0002V19.9997ZM10.0002 33.0647C9.65086 33.1728 9.3348 33.368 9.08181 33.6321C8.76644 34.0434 8.17732 34.1211 7.76602 33.8058C7.70077 33.7558 7.64239 33.6973 7.59233 33.6321C7.43715 33.4805 7.26509 33.3471 7.07953 33.2346L5.14287 27.8124L10.0002 26.1934V33.0647ZM10.342 25.0253L6.64328 26.2582L7.41752 21.9997H13.5829L14.3572 26.2582L10.6584 25.0253C10.5557 24.9911 10.4447 24.9911 10.342 25.0253ZM13.9199 33.2379C13.7365 33.3498 13.5664 33.4821 13.4128 33.6323C13.0989 34.0428 12.5116 34.1209 12.1012 33.807C12.0355 33.7568 11.9768 33.698 11.9265 33.6323C11.672 33.3656 11.353 33.1691 11.0003 33.0619V26.1934L15.8576 27.8124L13.9199 33.2379Z" fill="white"/>
<path d="M23.9995 11.9999H23V12.9999H23.9995V11.9999Z" fill="white"/>
</g>
<defs>
<clipPath id="clip0">
<rect width="30" height="30" fill="white" transform="translate(4 5)"/>
</clipPath>
</defs>
</svg>
