<svg width="40" height="40" viewBox="0 0 40 40" fill="none" xmlns="http://www.w3.org/2000/svg">
<rect width="40" height="40" rx="5" fill="#00D8B1"/>
<g clip-path="url(#clip0)">
<path d="M19.1111 21.7319H20.8889C21.1318 21.7319 21.3286 21.5351 21.3286 21.2923C21.3286 21.0495 21.1318 20.8526 20.8889 20.8526H19.1111C18.8683 20.8526 18.6714 21.0495 18.6714 21.2923C18.6714 21.5351 18.8682 21.7319 19.1111 21.7319Z" fill="white"/>
<path d="M17.992 10.5132C17.8074 10.3555 17.5298 10.3774 17.3721 10.562L12.8061 15.9079C12.6484 16.0926 12.6702 16.3701 12.8548 16.5278C12.9377 16.5986 13.0392 16.6332 13.1402 16.6332C13.2644 16.6332 13.3878 16.5808 13.4748 16.4791L18.0408 11.1331C18.1985 10.9484 18.1766 10.6709 17.992 10.5132Z" fill="white"/>
<path d="M12.8482 13.7067C12.932 13.7812 13.0363 13.8178 13.1402 13.8178C13.2614 13.8178 13.3821 13.768 13.4689 13.6702L14.7031 12.2817C14.8645 12.1002 14.8481 11.8224 14.6666 11.661C14.4851 11.4997 14.2072 11.5161 14.0459 11.6976L12.8117 13.0861C12.6504 13.2675 12.6668 13.5454 12.8482 13.7067Z" fill="white"/>
<path d="M30.8885 29.5478C30.7688 29.1703 30.4223 28.9166 30.0263 28.9166H15.1514C14.9086 28.9166 14.7117 29.1135 14.7117 29.3563C14.7117 29.5991 14.9086 29.796 15.1514 29.796H30.0263C30.0374 29.796 30.047 29.8031 30.0503 29.8135L31.4051 34.0879C31.4064 34.0921 31.4089 34.1001 31.4014 34.1104C31.3939 34.1206 31.3855 34.1206 31.3811 34.1206H8.61896C8.6145 34.1206 8.60623 34.1206 8.59867 34.1104C8.59117 34.1001 8.59363 34.0921 8.59498 34.0879L9.94971 29.8135C9.95305 29.803 9.96266 29.796 9.97368 29.796H13.1667C13.4095 29.796 13.6064 29.5991 13.6064 29.3563C13.6064 29.1135 13.4095 28.9166 13.1667 28.9166H9.97374C9.57768 28.9166 9.23116 29.1703 9.11151 29.5478L7.75678 33.8222C7.66867 34.1002 7.71692 34.3945 7.88915 34.6298C8.06139 34.865 8.32742 35 8.61896 35H31.381C31.6726 35 31.9386 34.865 32.1108 34.6298C32.2831 34.3945 32.3313 34.1002 32.2432 33.8222L30.8885 29.5478Z" fill="white"/>
<path d="M31.6058 5H8.39419C7.42467 5 6.63589 5.78878 6.63589 6.75829V21.6495C6.63589 22.619 7.42467 23.4078 8.39419 23.4078H17.0275C16.9973 24.2911 16.9105 25.7568 16.7212 26.5786H14.8288C14.5859 26.5786 14.3891 26.7754 14.3891 27.0182C14.3891 27.2611 14.5859 27.4579 14.8288 27.4579H25.1714C25.4142 27.4579 25.6111 27.2611 25.6111 27.0182C25.6111 26.7754 25.4142 26.5786 25.1714 26.5786H23.2789C23.0896 25.7568 23.0029 24.2911 22.9727 23.4078H31.606C32.5755 23.4078 33.3643 22.619 33.3643 21.6495V6.75829C33.3641 5.78878 32.5754 5 31.6058 5V5ZM17.619 26.5786C17.813 25.5847 17.8832 24.1282 17.9071 23.4078H22.0929C22.1168 24.1282 22.187 25.5847 22.381 26.5786H17.619ZM32.4848 21.6495C32.4848 22.1342 32.0905 22.5285 31.6058 22.5285H8.39419C7.90955 22.5285 7.51525 22.1342 7.51525 21.6495V20.0561H32.4848V21.6495H32.4848ZM32.4848 19.1767H31.3298V12.6868C31.3298 12.4439 31.1329 12.2471 30.8901 12.2471C30.6473 12.2471 30.4504 12.4439 30.4504 12.6868V19.1767H9.5496V7.98053C9.5496 7.91646 9.60171 7.86434 9.66579 7.86434H30.3342C30.3983 7.86434 30.4504 7.91646 30.4504 7.98053V10.675C30.4504 10.9178 30.6473 11.1147 30.8901 11.1147C31.1329 11.1147 31.3298 10.9178 31.3298 10.675V7.98053C31.3298 7.43158 30.8832 6.98499 30.3342 6.98499H9.66579C9.11684 6.98499 8.67024 7.43158 8.67024 7.98053V19.1767H7.51525V6.75829C7.51525 6.27365 7.90955 5.87935 8.39419 5.87935H31.6058C32.0905 5.87935 32.4848 6.27365 32.4848 6.75829V19.1767Z" fill="white"/>
<path d="M13.1668 30.7319H12.5702C12.3274 30.7319 12.1305 30.9287 12.1305 31.1715C12.1305 31.4144 12.3274 31.6112 12.5702 31.6112H13.1668C13.4096 31.6112 13.6065 31.4144 13.6065 31.1715C13.6065 30.9287 13.4096 30.7319 13.1668 30.7319Z" fill="white"/>
<path d="M14.9566 31.6112H15.5532C15.796 31.6112 15.9929 31.4144 15.9929 31.1715C15.9929 30.9287 15.796 30.7319 15.5532 30.7319H14.9566C14.7138 30.7319 14.5169 30.9287 14.5169 31.1715C14.5169 31.4144 14.7138 31.6112 14.9566 31.6112Z" fill="white"/>
<path d="M17.3431 31.6112H17.9397C18.1825 31.6112 18.3793 31.4144 18.3793 31.1715C18.3793 30.9287 18.1825 30.7319 17.9397 30.7319H17.3431C17.1002 30.7319 16.9034 30.9287 16.9034 31.1715C16.9034 31.4144 17.1002 31.6112 17.3431 31.6112Z" fill="white"/>
<path d="M19.7295 31.6112H20.3261C20.569 31.6112 20.7658 31.4144 20.7658 31.1715C20.7658 30.9287 20.569 30.7319 20.3261 30.7319H19.7295C19.4867 30.7319 19.2899 30.9287 19.2899 31.1715C19.2899 31.4144 19.4867 31.6112 19.7295 31.6112Z" fill="white"/>
<path d="M22.116 31.6112H22.7126C22.9554 31.6112 23.1523 31.4144 23.1523 31.1715C23.1523 30.9287 22.9554 30.7319 22.7126 30.7319H22.116C21.8732 30.7319 21.6763 30.9287 21.6763 31.1715C21.6763 31.4144 21.8732 31.6112 22.116 31.6112Z" fill="white"/>
<path d="M24.5025 31.6112H25.0991C25.3419 31.6112 25.5388 31.4144 25.5388 31.1715C25.5388 30.9287 25.3419 30.7319 25.0991 30.7319H24.5025C24.2597 30.7319 24.0628 30.9287 24.0628 31.1715C24.0628 31.4144 24.2597 31.6112 24.5025 31.6112Z" fill="white"/>
<path d="M26.8333 31.6112H27.4299C27.6727 31.6112 27.8696 31.4144 27.8696 31.1715C27.8696 30.9287 27.6727 30.7319 27.4299 30.7319H26.8333C26.5905 30.7319 26.3936 30.9287 26.3936 31.1715C26.3936 31.4144 26.5905 31.6112 26.8333 31.6112Z" fill="white"/>
<path d="M13.1668 32.3055H12.5702C12.3274 32.3055 12.1305 32.5024 12.1305 32.7452C12.1305 32.988 12.3274 33.1848 12.5702 33.1848H13.1668C13.4096 33.1848 13.6065 32.988 13.6065 32.7452C13.6065 32.5024 13.4096 32.3055 13.1668 32.3055Z" fill="white"/>
<path d="M14.9566 33.1848H15.5532C15.796 33.1848 15.9929 32.988 15.9929 32.7452C15.9929 32.5024 15.796 32.3055 15.5532 32.3055H14.9566C14.7138 32.3055 14.5169 32.5024 14.5169 32.7452C14.5169 32.988 14.7138 33.1848 14.9566 33.1848Z" fill="white"/>
<path d="M17.3431 33.1848H17.9397C18.1825 33.1848 18.3793 32.988 18.3793 32.7452C18.3793 32.5024 18.1825 32.3055 17.9397 32.3055H17.3431C17.1002 32.3055 16.9034 32.5024 16.9034 32.7452C16.9034 32.988 17.1002 33.1848 17.3431 33.1848Z" fill="white"/>
<path d="M19.7295 33.1848H20.3261C20.569 33.1848 20.7658 32.988 20.7658 32.7452C20.7658 32.5024 20.569 32.3055 20.3261 32.3055H19.7295C19.4867 32.3055 19.2899 32.5024 19.2899 32.7452C19.2899 32.988 19.4867 33.1848 19.7295 33.1848Z" fill="white"/>
<path d="M22.116 33.1848H22.7126C22.9554 33.1848 23.1523 32.988 23.1523 32.7452C23.1523 32.5024 22.9554 32.3055 22.7126 32.3055H22.116C21.8732 32.3055 21.6763 32.5024 21.6763 32.7452C21.6763 32.988 21.8732 33.1848 22.116 33.1848Z" fill="white"/>
<path d="M24.5025 33.1848H25.0991C25.3419 33.1848 25.5388 32.988 25.5388 32.7452C25.5388 32.5024 25.3419 32.3055 25.0991 32.3055H24.5025C24.2597 32.3055 24.0628 32.5024 24.0628 32.7452C24.0628 32.988 24.2597 33.1848 24.5025 33.1848Z" fill="white"/>
<path d="M26.8333 33.1848H27.4299C27.6727 33.1848 27.8696 32.988 27.8696 32.7452C27.8696 32.5024 27.6727 32.3055 27.4299 32.3055H26.8333C26.5905 32.3055 26.3936 32.5024 26.3936 32.7452C26.3936 32.988 26.5905 33.1848 26.8333 33.1848Z" fill="white"/>
</g>
<defs>
<clipPath id="clip0">
<rect width="30" height="30" fill="white" transform="translate(5 5)"/>
</clipPath>
</defs>
</svg>
