<svg width="40" height="40" viewBox="0 0 40 40" fill="none" xmlns="http://www.w3.org/2000/svg">
<rect width="40" height="40" rx="5" fill="#FF77D9"/>
<g clip-path="url(#clip0)">
<path d="M16.0228 10.4414L19.5921 13.8886C19.7056 13.9983 19.8523 14.0531 19.9991 14.0531C20.1458 14.0531 20.2926 13.9983 20.406 13.8887L23.977 10.4415C23.9821 10.4366 23.9871 10.4315 23.992 10.4264C25.192 9.18073 25.192 7.15538 23.9919 5.91179C23.4686 5.36886 22.752 5.0879 21.9747 5.1196C21.2476 5.1496 20.546 5.44761 20 5.95796C19.4531 5.44731 18.7519 5.1496 18.0253 5.1196C17.2478 5.08772 16.5312 5.3688 16.0082 5.91149C14.808 7.15538 14.8079 9.18073 16.0079 10.4264C16.0128 10.4315 16.0178 10.4365 16.0228 10.4414ZM16.8518 6.72495C17.5118 6.04022 18.5854 6.23909 19.2019 6.816L19.2345 6.84653C19.4717 7.06878 19.6766 7.26079 19.9994 7.26079C20.3216 7.26079 20.5269 7.06919 20.7646 6.84735L20.7982 6.81595C21.4146 6.23915 22.4884 6.04017 23.1485 6.72518C23.9138 7.51837 23.9159 8.8086 23.155 9.60624L19.9993 12.6526L16.845 9.60618C16.0841 8.8086 16.0862 7.51837 16.8518 6.72495Z" fill="white"/>
<path d="M34.9999 30.3112C34.9485 27.2502 32.4512 26.5763 30.4446 26.0349C30.178 25.963 29.9211 25.8936 29.6735 25.8208V24.7146C31.2573 23.6701 32.4472 21.8271 32.4472 20.2237V17.5925C32.4472 14.7307 30.1205 12.4025 27.2606 12.4025C24.2917 12.4025 21.9661 14.6822 21.9661 17.5925V20.2237C21.9661 21.8292 23.1558 23.6716 24.7398 24.7152V25.8208C24.492 25.8937 24.235 25.963 23.9683 26.035C23.791 26.0828 23.6097 26.1318 23.4267 26.1833C23.4208 26.1848 23.4148 26.1866 23.4089 26.1883C23.4055 26.1892 23.402 26.1902 23.3986 26.1912C22.1171 26.5531 20.7528 27.046 19.9991 28.2019C19.8444 27.9646 19.6643 27.755 19.4642 27.569L18.3546 20.1189V17.9682C18.3546 14.8993 15.8595 12.4025 12.7926 12.4025C9.7257 12.4025 7.23061 14.8993 7.23061 17.9682V20.1189L6.1209 27.5692C5.46494 28.1786 5.02074 29.0386 5 30.3115V30.3211V34.2969C5 34.6205 5.26238 34.8828 5.58594 34.8828H10.1617C10.4853 34.8828 10.7476 34.6205 10.7476 34.2969C10.7476 33.9733 10.4853 33.711 10.1617 33.711H8.89572V31.0674C8.89572 30.9575 8.88652 30.6051 8.88939 30.5531C8.92355 30.5245 9.00242 30.4684 9.18406 30.3651C9.97537 29.915 11.6664 30.0048 12.3781 30.717C12.488 30.827 12.6371 30.8888 12.7926 30.8888C12.948 30.8888 13.0971 30.827 13.207 30.717C13.9187 30.0048 15.6096 29.915 16.4009 30.365C16.5827 30.4684 16.6616 30.5245 16.6957 30.5531C16.6985 30.6051 16.6893 33.711 16.6893 33.711H15.4234C15.0999 33.711 14.8375 33.9733 14.8375 34.2969C14.8375 34.6205 15.0999 34.8828 15.4234 34.8828H19.9992H27.204C27.2045 34.8828 27.2049 34.8829 27.2053 34.8829C27.2055 34.8829 27.2056 34.8828 27.2058 34.8828C27.206 34.8828 34.4141 34.8828 34.4141 34.8828C34.7377 34.8828 35.0001 34.6204 35.0001 34.2968V30.321C35 30.3178 35 30.3145 34.9999 30.3112ZM18.1546 26.7315C17.4684 26.4226 16.7208 26.2209 16.0312 26.0348C15.7647 25.9629 15.5078 25.8936 15.2603 25.8208V24.8707C16.2736 24.1452 17.0889 23.0695 17.4475 21.9835L18.1546 26.7315ZM13.6565 24.4181C13.0107 24.658 12.576 24.6584 11.9337 24.4198C10.4567 23.8709 9.11164 22.1624 9.11164 20.8353V20.1081C9.9333 19.6074 10.5441 19.1141 11.0417 18.5505C12.4276 19.4527 14.2487 20.1201 16.4734 20.5421V20.8353C16.4734 22.1606 15.1304 23.8684 13.6565 24.4181ZM8.40242 17.9682C8.40242 15.5454 10.3718 13.5744 12.7926 13.5744C15.2133 13.5744 17.1826 15.5454 17.1826 17.9682V19.4788C14.6446 19.0525 12.6607 18.3168 11.2788 17.2886C11.1771 17.2129 11.0543 17.1728 10.929 17.1728C10.9004 17.1728 10.8717 17.1749 10.8432 17.1791C10.6892 17.2019 10.5506 17.2851 10.4581 17.4101C10.036 17.9802 9.49906 18.5148 8.40242 19.1681V17.9682ZM8.1377 21.9831C8.49617 23.07 9.31203 24.146 10.3265 24.8718V25.8208C10.0789 25.8936 9.82197 25.9629 9.55555 26.0347C8.86537 26.2209 8.11719 26.4227 7.43041 26.7317L8.1377 21.9831ZM19.4132 33.7109H17.8612V31.0673C17.8612 30.9691 17.8635 30.8833 17.8655 30.8074C17.8844 30.0879 17.7648 29.7926 16.9803 29.3462C15.9154 28.7406 14.0006 28.7437 12.7926 29.5504C11.5845 28.7437 9.6698 28.7407 8.60469 29.3462C7.82023 29.7925 7.70059 30.0879 7.71957 30.8073C7.72156 30.8833 7.72385 30.9691 7.72385 31.0673V33.7108H6.17188V30.326C6.20691 28.2972 7.58914 27.7787 9.8607 27.1661C10.2718 27.0552 10.6969 26.9406 11.0963 26.8085C11.3363 26.7292 11.4983 26.5049 11.4983 26.2521V25.5075C11.5074 25.5109 11.5164 25.5149 11.5255 25.5183C11.9748 25.6852 12.383 25.7686 12.7917 25.7686C13.2018 25.7686 13.6125 25.6845 14.0652 25.5163C14.0729 25.5135 14.0806 25.5101 14.0884 25.5071V26.2521C14.0884 26.5049 14.2504 26.729 14.4903 26.8084C14.8896 26.9406 15.3147 27.0552 15.7258 27.1661C17.9963 27.7788 19.378 28.2975 19.4132 30.3258V33.7109ZM30.0129 27.1318L29.181 28.8556L28.0933 27.8744L29.2216 26.9087C29.4828 26.9877 29.7495 27.0606 30.0129 27.1318ZM27.2087 27.089L25.9116 25.9618V25.3049C26.3698 25.4684 26.7896 25.5511 27.2085 25.5511C27.6271 25.5511 28.0457 25.4685 28.5017 25.3052V25.9824L27.2087 27.089ZM27.2606 13.5744C29.4743 13.5744 31.2754 15.3769 31.2754 17.5925V17.6123C28.6593 18.8026 27.6106 18.2968 26.5039 17.7616C25.6481 17.3478 24.6935 16.8872 23.1563 17.2095C23.3483 15.1426 25.0817 13.5744 27.2606 13.5744ZM23.1379 20.2237V18.4172C24.4395 18.0655 25.1345 18.401 25.9937 18.8167C26.6935 19.1551 27.4439 19.518 28.5226 19.518C29.2581 19.518 30.1466 19.3489 31.2753 18.8886V20.2237C31.2753 20.9076 30.9457 21.7308 30.371 22.4822C29.7753 23.2613 28.9718 23.8803 28.1663 24.1809C27.4515 24.4485 26.9681 24.4488 26.2503 24.182C24.6214 23.5776 23.1379 21.6909 23.1379 20.2237ZM25.2088 26.9036L26.3221 27.8712L25.231 28.8564L24.8805 28.1301L24.8475 28.0602C24.845 28.0548 24.842 28.05 24.8393 28.0448L24.399 27.1325C24.6685 27.0596 24.9419 26.9846 25.2088 26.9036ZM20.5851 33.7109V30.329C20.6105 28.799 21.4017 28.1273 22.762 27.6268L21.9428 31.1766C21.887 31.4184 21.9896 31.6692 22.199 31.8026L25.1951 33.7109H20.5851ZM23.1778 31.0366L23.7614 28.5075L25.7824 32.6956L23.1778 31.0366ZM25.7616 29.9561L27.2059 28.6521L28.6503 29.9552L27.2057 32.9486L25.7616 29.9561ZM30.6505 28.5067L31.2352 31.0367L28.6288 32.6962L30.6505 28.5067ZM33.8281 33.7109H29.217L32.2142 31.8026C32.4236 31.6693 32.5262 31.4183 32.4703 31.1764L31.65 27.6268C33.0092 28.127 33.8008 28.7981 33.8281 30.3262V33.7109Z" fill="white"/>
<path d="M12.7925 33.7109C12.469 33.7109 12.2066 33.9732 12.2066 34.2968C12.2066 34.6204 12.469 34.8828 12.7925 34.8828H12.7959C13.1194 34.8828 13.3802 34.6204 13.3802 34.2968C13.3802 33.9732 13.1162 33.7109 12.7925 33.7109Z" fill="white"/>
</g>
<defs>
<clipPath id="clip0">
<rect width="30" height="30" fill="white" transform="translate(5 5)"/>
</clipPath>
</defs>
</svg>
